<?xml version="1.0" encoding="utf-8" standalone="no"?>
<!DOCTYPE svg PUBLIC "-//W3C//DTD SVG 1.1//EN"
  "http://www.w3.org/Graphics/SVG/1.1/DTD/svg11.dtd">
<svg xmlns:xlink="http://www.w3.org/1999/xlink" width="1382.4pt" height="702pt" viewBox="0 0 1382.4 702" xmlns="http://www.w3.org/2000/svg" version="1.1">
 <metadata>
  <rdf:RDF xmlns:dc="http://purl.org/dc/elements/1.1/" xmlns:cc="http://creativecommons.org/ns#" xmlns:rdf="http://www.w3.org/1999/02/22-rdf-syntax-ns#">
   <cc:Work>
    <dc:type rdf:resource="http://purl.org/dc/dcmitype/StillImage"/>
    <dc:date>2023-03-30T03:17:08.742930</dc:date>
    <dc:format>image/svg+xml</dc:format>
    <dc:creator>
     <cc:Agent>
      <dc:title>Matplotlib v3.6.2, https://matplotlib.org/</dc:title>
     </cc:Agent>
    </dc:creator>
   </cc:Work>
  </rdf:RDF>
 </metadata>
 <defs>
  <style type="text/css">*{stroke-linejoin: round; stroke-linecap: butt}</style>
 </defs>
 <g id="figure_1">
  <g id="patch_1">
   <path d="M 0 702 
L 1382.4 702 
L 1382.4 0 
L 0 0 
z
" style="fill: #ffffff"/>
  </g>
  <g id="axes_1">
   <g id="patch_2">
    <path d="M 172.8 329.94 
L 1244.16 329.94 
L 1244.16 84.24 
L 172.8 84.24 
z
" style="fill: #eeeeee"/>
   </g>
   <g id="matplotlib.axis_1">
    <g id="xtick_1">
     <g id="line2d_1">
      <path d="M 221.498182 329.94 
L 221.498182 84.24 
" clip-path="url(#pabefd5ccc7)" style="fill: none; stroke-dasharray: 1.85,0.8; stroke-dashoffset: 0; stroke: #b2b2b2; stroke-width: 0.5"/>
     </g>
     <g id="line2d_2">
      <defs>
       <path id="m0d3da844f2" d="M 0 0 
L 0 -3.5 
" style="stroke: #000000; stroke-width: 0.8"/>
      </defs>
      <g>
       <use xlink:href="#m0d3da844f2" x="221.498182" y="329.94" style="stroke: #000000; stroke-width: 0.8"/>
      </g>
     </g>
     <g id="text_1">
      <!-- 0 -->
      <g transform="translate(218.316932 341.038437) scale(0.1 -0.1)">
       <defs>
        <path id="DejaVuSans-30" d="M 2034 4250 
Q 1547 4250 1301 3770 
Q 1056 3291 1056 2328 
Q 1056 1369 1301 889 
Q 1547 409 2034 409 
Q 2525 409 2770 889 
Q 3016 1369 3016 2328 
Q 3016 3291 2770 3770 
Q 2525 4250 2034 4250 
z
M 2034 4750 
Q 2819 4750 3233 4129 
Q 3647 3509 3647 2328 
Q 3647 1150 3233 529 
Q 2819 -91 2034 -91 
Q 1250 -91 836 529 
Q 422 1150 422 2328 
Q 422 3509 836 4129 
Q 1250 4750 2034 4750 
z
" transform="scale(0.015625)"/>
       </defs>
       <use xlink:href="#DejaVuSans-30"/>
      </g>
     </g>
    </g>
    <g id="xtick_2">
     <g id="line2d_3">
      <path d="M 351.620244 329.94 
L 351.620244 84.24 
" clip-path="url(#pabefd5ccc7)" style="fill: none; stroke-dasharray: 1.85,0.8; stroke-dashoffset: 0; stroke: #b2b2b2; stroke-width: 0.5"/>
     </g>
     <g id="line2d_4">
      <g>
       <use xlink:href="#m0d3da844f2" x="351.620244" y="329.94" style="stroke: #000000; stroke-width: 0.8"/>
      </g>
     </g>
     <g id="text_2">
      <!-- 200 -->
      <g transform="translate(342.076494 341.038437) scale(0.1 -0.1)">
       <defs>
        <path id="DejaVuSans-32" d="M 1228 531 
L 3431 531 
L 3431 0 
L 469 0 
L 469 531 
Q 828 903 1448 1529 
Q 2069 2156 2228 2338 
Q 2531 2678 2651 2914 
Q 2772 3150 2772 3378 
Q 2772 3750 2511 3984 
Q 2250 4219 1831 4219 
Q 1534 4219 1204 4116 
Q 875 4013 500 3803 
L 500 4441 
Q 881 4594 1212 4672 
Q 1544 4750 1819 4750 
Q 2544 4750 2975 4387 
Q 3406 4025 3406 3419 
Q 3406 3131 3298 2873 
Q 3191 2616 2906 2266 
Q 2828 2175 2409 1742 
Q 1991 1309 1228 531 
z
" transform="scale(0.015625)"/>
       </defs>
       <use xlink:href="#DejaVuSans-32"/>
       <use xlink:href="#DejaVuSans-30" x="63.623047"/>
       <use xlink:href="#DejaVuSans-30" x="127.246094"/>
      </g>
     </g>
    </g>
    <g id="xtick_3">
     <g id="line2d_5">
      <path d="M 481.742306 329.94 
L 481.742306 84.24 
" clip-path="url(#pabefd5ccc7)" style="fill: none; stroke-dasharray: 1.85,0.8; stroke-dashoffset: 0; stroke: #b2b2b2; stroke-width: 0.5"/>
     </g>
     <g id="line2d_6">
      <g>
       <use xlink:href="#m0d3da844f2" x="481.742306" y="329.94" style="stroke: #000000; stroke-width: 0.8"/>
      </g>
     </g>
     <g id="text_3">
      <!-- 400 -->
      <g transform="translate(472.198556 341.038437) scale(0.1 -0.1)">
       <defs>
        <path id="DejaVuSans-34" d="M 2419 4116 
L 825 1625 
L 2419 1625 
L 2419 4116 
z
M 2253 4666 
L 3047 4666 
L 3047 1625 
L 3713 1625 
L 3713 1100 
L 3047 1100 
L 3047 0 
L 2419 0 
L 2419 1100 
L 313 1100 
L 313 1709 
L 2253 4666 
z
" transform="scale(0.015625)"/>
       </defs>
       <use xlink:href="#DejaVuSans-34"/>
       <use xlink:href="#DejaVuSans-30" x="63.623047"/>
       <use xlink:href="#DejaVuSans-30" x="127.246094"/>
      </g>
     </g>
    </g>
    <g id="xtick_4">
     <g id="line2d_7">
      <path d="M 611.864369 329.94 
L 611.864369 84.24 
" clip-path="url(#pabefd5ccc7)" style="fill: none; stroke-dasharray: 1.85,0.8; stroke-dashoffset: 0; stroke: #b2b2b2; stroke-width: 0.5"/>
     </g>
     <g id="line2d_8">
      <g>
       <use xlink:href="#m0d3da844f2" x="611.864369" y="329.94" style="stroke: #000000; stroke-width: 0.8"/>
      </g>
     </g>
     <g id="text_4">
      <!-- 600 -->
      <g transform="translate(602.320619 341.038437) scale(0.1 -0.1)">
       <defs>
        <path id="DejaVuSans-36" d="M 2113 2584 
Q 1688 2584 1439 2293 
Q 1191 2003 1191 1497 
Q 1191 994 1439 701 
Q 1688 409 2113 409 
Q 2538 409 2786 701 
Q 3034 994 3034 1497 
Q 3034 2003 2786 2293 
Q 2538 2584 2113 2584 
z
M 3366 4563 
L 3366 3988 
Q 3128 4100 2886 4159 
Q 2644 4219 2406 4219 
Q 1781 4219 1451 3797 
Q 1122 3375 1075 2522 
Q 1259 2794 1537 2939 
Q 1816 3084 2150 3084 
Q 2853 3084 3261 2657 
Q 3669 2231 3669 1497 
Q 3669 778 3244 343 
Q 2819 -91 2113 -91 
Q 1303 -91 875 529 
Q 447 1150 447 2328 
Q 447 3434 972 4092 
Q 1497 4750 2381 4750 
Q 2619 4750 2861 4703 
Q 3103 4656 3366 4563 
z
" transform="scale(0.015625)"/>
       </defs>
       <use xlink:href="#DejaVuSans-36"/>
       <use xlink:href="#DejaVuSans-30" x="63.623047"/>
       <use xlink:href="#DejaVuSans-30" x="127.246094"/>
      </g>
     </g>
    </g>
    <g id="xtick_5">
     <g id="line2d_9">
      <path d="M 741.986431 329.94 
L 741.986431 84.24 
" clip-path="url(#pabefd5ccc7)" style="fill: none; stroke-dasharray: 1.85,0.8; stroke-dashoffset: 0; stroke: #b2b2b2; stroke-width: 0.5"/>
     </g>
     <g id="line2d_10">
      <g>
       <use xlink:href="#m0d3da844f2" x="741.986431" y="329.94" style="stroke: #000000; stroke-width: 0.8"/>
      </g>
     </g>
     <g id="text_5">
      <!-- 800 -->
      <g transform="translate(732.442681 341.038437) scale(0.1 -0.1)">
       <defs>
        <path id="DejaVuSans-38" d="M 2034 2216 
Q 1584 2216 1326 1975 
Q 1069 1734 1069 1313 
Q 1069 891 1326 650 
Q 1584 409 2034 409 
Q 2484 409 2743 651 
Q 3003 894 3003 1313 
Q 3003 1734 2745 1975 
Q 2488 2216 2034 2216 
z
M 1403 2484 
Q 997 2584 770 2862 
Q 544 3141 544 3541 
Q 544 4100 942 4425 
Q 1341 4750 2034 4750 
Q 2731 4750 3128 4425 
Q 3525 4100 3525 3541 
Q 3525 3141 3298 2862 
Q 3072 2584 2669 2484 
Q 3125 2378 3379 2068 
Q 3634 1759 3634 1313 
Q 3634 634 3220 271 
Q 2806 -91 2034 -91 
Q 1263 -91 848 271 
Q 434 634 434 1313 
Q 434 1759 690 2068 
Q 947 2378 1403 2484 
z
M 1172 3481 
Q 1172 3119 1398 2916 
Q 1625 2713 2034 2713 
Q 2441 2713 2670 2916 
Q 2900 3119 2900 3481 
Q 2900 3844 2670 4047 
Q 2441 4250 2034 4250 
Q 1625 4250 1398 4047 
Q 1172 3844 1172 3481 
z
" transform="scale(0.015625)"/>
       </defs>
       <use xlink:href="#DejaVuSans-38"/>
       <use xlink:href="#DejaVuSans-30" x="63.623047"/>
       <use xlink:href="#DejaVuSans-30" x="127.246094"/>
      </g>
     </g>
    </g>
    <g id="xtick_6">
     <g id="line2d_11">
      <path d="M 872.108493 329.94 
L 872.108493 84.24 
" clip-path="url(#pabefd5ccc7)" style="fill: none; stroke-dasharray: 1.85,0.8; stroke-dashoffset: 0; stroke: #b2b2b2; stroke-width: 0.5"/>
     </g>
     <g id="line2d_12">
      <g>
       <use xlink:href="#m0d3da844f2" x="872.108493" y="329.94" style="stroke: #000000; stroke-width: 0.8"/>
      </g>
     </g>
     <g id="text_6">
      <!-- 1000 -->
      <g transform="translate(859.383493 341.038437) scale(0.1 -0.1)">
       <defs>
        <path id="DejaVuSans-31" d="M 794 531 
L 1825 531 
L 1825 4091 
L 703 3866 
L 703 4441 
L 1819 4666 
L 2450 4666 
L 2450 531 
L 3481 531 
L 3481 0 
L 794 0 
L 794 531 
z
" transform="scale(0.015625)"/>
       </defs>
       <use xlink:href="#DejaVuSans-31"/>
       <use xlink:href="#DejaVuSans-30" x="63.623047"/>
       <use xlink:href="#DejaVuSans-30" x="127.246094"/>
       <use xlink:href="#DejaVuSans-30" x="190.869141"/>
      </g>
     </g>
    </g>
    <g id="xtick_7">
     <g id="line2d_13">
      <path d="M 1002.230556 329.94 
L 1002.230556 84.24 
" clip-path="url(#pabefd5ccc7)" style="fill: none; stroke-dasharray: 1.85,0.8; stroke-dashoffset: 0; stroke: #b2b2b2; stroke-width: 0.5"/>
     </g>
     <g id="line2d_14">
      <g>
       <use xlink:href="#m0d3da844f2" x="1002.230556" y="329.94" style="stroke: #000000; stroke-width: 0.8"/>
      </g>
     </g>
     <g id="text_7">
      <!-- 1200 -->
      <g transform="translate(989.505556 341.038437) scale(0.1 -0.1)">
       <use xlink:href="#DejaVuSans-31"/>
       <use xlink:href="#DejaVuSans-32" x="63.623047"/>
       <use xlink:href="#DejaVuSans-30" x="127.246094"/>
       <use xlink:href="#DejaVuSans-30" x="190.869141"/>
      </g>
     </g>
    </g>
    <g id="xtick_8">
     <g id="line2d_15">
      <path d="M 1132.352618 329.94 
L 1132.352618 84.24 
" clip-path="url(#pabefd5ccc7)" style="fill: none; stroke-dasharray: 1.85,0.8; stroke-dashoffset: 0; stroke: #b2b2b2; stroke-width: 0.5"/>
     </g>
     <g id="line2d_16">
      <g>
       <use xlink:href="#m0d3da844f2" x="1132.352618" y="329.94" style="stroke: #000000; stroke-width: 0.8"/>
      </g>
     </g>
     <g id="text_8">
      <!-- 1400 -->
      <g transform="translate(1119.627618 341.038437) scale(0.1 -0.1)">
       <use xlink:href="#DejaVuSans-31"/>
       <use xlink:href="#DejaVuSans-34" x="63.623047"/>
       <use xlink:href="#DejaVuSans-30" x="127.246094"/>
       <use xlink:href="#DejaVuSans-30" x="190.869141"/>
      </g>
     </g>
    </g>
    <g id="text_9">
     <!-- Absolutwert der Beschleunigungen -->
     <g transform="translate(603.365625 356.23625) scale(0.12 -0.12)">
      <defs>
       <path id="DejaVuSans-41" d="M 2188 4044 
L 1331 1722 
L 3047 1722 
L 2188 4044 
z
M 1831 4666 
L 2547 4666 
L 4325 0 
L 3669 0 
L 3244 1197 
L 1141 1197 
L 716 0 
L 50 0 
L 1831 4666 
z
" transform="scale(0.015625)"/>
       <path id="DejaVuSans-62" d="M 3116 1747 
Q 3116 2381 2855 2742 
Q 2594 3103 2138 3103 
Q 1681 3103 1420 2742 
Q 1159 2381 1159 1747 
Q 1159 1113 1420 752 
Q 1681 391 2138 391 
Q 2594 391 2855 752 
Q 3116 1113 3116 1747 
z
M 1159 2969 
Q 1341 3281 1617 3432 
Q 1894 3584 2278 3584 
Q 2916 3584 3314 3078 
Q 3713 2572 3713 1747 
Q 3713 922 3314 415 
Q 2916 -91 2278 -91 
Q 1894 -91 1617 61 
Q 1341 213 1159 525 
L 1159 0 
L 581 0 
L 581 4863 
L 1159 4863 
L 1159 2969 
z
" transform="scale(0.015625)"/>
       <path id="DejaVuSans-73" d="M 2834 3397 
L 2834 2853 
Q 2591 2978 2328 3040 
Q 2066 3103 1784 3103 
Q 1356 3103 1142 2972 
Q 928 2841 928 2578 
Q 928 2378 1081 2264 
Q 1234 2150 1697 2047 
L 1894 2003 
Q 2506 1872 2764 1633 
Q 3022 1394 3022 966 
Q 3022 478 2636 193 
Q 2250 -91 1575 -91 
Q 1294 -91 989 -36 
Q 684 19 347 128 
L 347 722 
Q 666 556 975 473 
Q 1284 391 1588 391 
Q 1994 391 2212 530 
Q 2431 669 2431 922 
Q 2431 1156 2273 1281 
Q 2116 1406 1581 1522 
L 1381 1569 
Q 847 1681 609 1914 
Q 372 2147 372 2553 
Q 372 3047 722 3315 
Q 1072 3584 1716 3584 
Q 2034 3584 2315 3537 
Q 2597 3491 2834 3397 
z
" transform="scale(0.015625)"/>
       <path id="DejaVuSans-6f" d="M 1959 3097 
Q 1497 3097 1228 2736 
Q 959 2375 959 1747 
Q 959 1119 1226 758 
Q 1494 397 1959 397 
Q 2419 397 2687 759 
Q 2956 1122 2956 1747 
Q 2956 2369 2687 2733 
Q 2419 3097 1959 3097 
z
M 1959 3584 
Q 2709 3584 3137 3096 
Q 3566 2609 3566 1747 
Q 3566 888 3137 398 
Q 2709 -91 1959 -91 
Q 1206 -91 779 398 
Q 353 888 353 1747 
Q 353 2609 779 3096 
Q 1206 3584 1959 3584 
z
" transform="scale(0.015625)"/>
       <path id="DejaVuSans-6c" d="M 603 4863 
L 1178 4863 
L 1178 0 
L 603 0 
L 603 4863 
z
" transform="scale(0.015625)"/>
       <path id="DejaVuSans-75" d="M 544 1381 
L 544 3500 
L 1119 3500 
L 1119 1403 
Q 1119 906 1312 657 
Q 1506 409 1894 409 
Q 2359 409 2629 706 
Q 2900 1003 2900 1516 
L 2900 3500 
L 3475 3500 
L 3475 0 
L 2900 0 
L 2900 538 
Q 2691 219 2414 64 
Q 2138 -91 1772 -91 
Q 1169 -91 856 284 
Q 544 659 544 1381 
z
M 1991 3584 
L 1991 3584 
z
" transform="scale(0.015625)"/>
       <path id="DejaVuSans-74" d="M 1172 4494 
L 1172 3500 
L 2356 3500 
L 2356 3053 
L 1172 3053 
L 1172 1153 
Q 1172 725 1289 603 
Q 1406 481 1766 481 
L 2356 481 
L 2356 0 
L 1766 0 
Q 1100 0 847 248 
Q 594 497 594 1153 
L 594 3053 
L 172 3053 
L 172 3500 
L 594 3500 
L 594 4494 
L 1172 4494 
z
" transform="scale(0.015625)"/>
       <path id="DejaVuSans-77" d="M 269 3500 
L 844 3500 
L 1563 769 
L 2278 3500 
L 2956 3500 
L 3675 769 
L 4391 3500 
L 4966 3500 
L 4050 0 
L 3372 0 
L 2619 2869 
L 1863 0 
L 1184 0 
L 269 3500 
z
" transform="scale(0.015625)"/>
       <path id="DejaVuSans-65" d="M 3597 1894 
L 3597 1613 
L 953 1613 
Q 991 1019 1311 708 
Q 1631 397 2203 397 
Q 2534 397 2845 478 
Q 3156 559 3463 722 
L 3463 178 
Q 3153 47 2828 -22 
Q 2503 -91 2169 -91 
Q 1331 -91 842 396 
Q 353 884 353 1716 
Q 353 2575 817 3079 
Q 1281 3584 2069 3584 
Q 2775 3584 3186 3129 
Q 3597 2675 3597 1894 
z
M 3022 2063 
Q 3016 2534 2758 2815 
Q 2500 3097 2075 3097 
Q 1594 3097 1305 2825 
Q 1016 2553 972 2059 
L 3022 2063 
z
" transform="scale(0.015625)"/>
       <path id="DejaVuSans-72" d="M 2631 2963 
Q 2534 3019 2420 3045 
Q 2306 3072 2169 3072 
Q 1681 3072 1420 2755 
Q 1159 2438 1159 1844 
L 1159 0 
L 581 0 
L 581 3500 
L 1159 3500 
L 1159 2956 
Q 1341 3275 1631 3429 
Q 1922 3584 2338 3584 
Q 2397 3584 2469 3576 
Q 2541 3569 2628 3553 
L 2631 2963 
z
" transform="scale(0.015625)"/>
       <path id="DejaVuSans-20" transform="scale(0.015625)"/>
       <path id="DejaVuSans-64" d="M 2906 2969 
L 2906 4863 
L 3481 4863 
L 3481 0 
L 2906 0 
L 2906 525 
Q 2725 213 2448 61 
Q 2172 -91 1784 -91 
Q 1150 -91 751 415 
Q 353 922 353 1747 
Q 353 2572 751 3078 
Q 1150 3584 1784 3584 
Q 2172 3584 2448 3432 
Q 2725 3281 2906 2969 
z
M 947 1747 
Q 947 1113 1208 752 
Q 1469 391 1925 391 
Q 2381 391 2643 752 
Q 2906 1113 2906 1747 
Q 2906 2381 2643 2742 
Q 2381 3103 1925 3103 
Q 1469 3103 1208 2742 
Q 947 2381 947 1747 
z
" transform="scale(0.015625)"/>
       <path id="DejaVuSans-42" d="M 1259 2228 
L 1259 519 
L 2272 519 
Q 2781 519 3026 730 
Q 3272 941 3272 1375 
Q 3272 1813 3026 2020 
Q 2781 2228 2272 2228 
L 1259 2228 
z
M 1259 4147 
L 1259 2741 
L 2194 2741 
Q 2656 2741 2882 2914 
Q 3109 3088 3109 3444 
Q 3109 3797 2882 3972 
Q 2656 4147 2194 4147 
L 1259 4147 
z
M 628 4666 
L 2241 4666 
Q 2963 4666 3353 4366 
Q 3744 4066 3744 3513 
Q 3744 3084 3544 2831 
Q 3344 2578 2956 2516 
Q 3422 2416 3680 2098 
Q 3938 1781 3938 1306 
Q 3938 681 3513 340 
Q 3088 0 2303 0 
L 628 0 
L 628 4666 
z
" transform="scale(0.015625)"/>
       <path id="DejaVuSans-63" d="M 3122 3366 
L 3122 2828 
Q 2878 2963 2633 3030 
Q 2388 3097 2138 3097 
Q 1578 3097 1268 2742 
Q 959 2388 959 1747 
Q 959 1106 1268 751 
Q 1578 397 2138 397 
Q 2388 397 2633 464 
Q 2878 531 3122 666 
L 3122 134 
Q 2881 22 2623 -34 
Q 2366 -91 2075 -91 
Q 1284 -91 818 406 
Q 353 903 353 1747 
Q 353 2603 823 3093 
Q 1294 3584 2113 3584 
Q 2378 3584 2631 3529 
Q 2884 3475 3122 3366 
z
" transform="scale(0.015625)"/>
       <path id="DejaVuSans-68" d="M 3513 2113 
L 3513 0 
L 2938 0 
L 2938 2094 
Q 2938 2591 2744 2837 
Q 2550 3084 2163 3084 
Q 1697 3084 1428 2787 
Q 1159 2491 1159 1978 
L 1159 0 
L 581 0 
L 581 4863 
L 1159 4863 
L 1159 2956 
Q 1366 3272 1645 3428 
Q 1925 3584 2291 3584 
Q 2894 3584 3203 3211 
Q 3513 2838 3513 2113 
z
" transform="scale(0.015625)"/>
       <path id="DejaVuSans-6e" d="M 3513 2113 
L 3513 0 
L 2938 0 
L 2938 2094 
Q 2938 2591 2744 2837 
Q 2550 3084 2163 3084 
Q 1697 3084 1428 2787 
Q 1159 2491 1159 1978 
L 1159 0 
L 581 0 
L 581 3500 
L 1159 3500 
L 1159 2956 
Q 1366 3272 1645 3428 
Q 1925 3584 2291 3584 
Q 2894 3584 3203 3211 
Q 3513 2838 3513 2113 
z
" transform="scale(0.015625)"/>
       <path id="DejaVuSans-69" d="M 603 3500 
L 1178 3500 
L 1178 0 
L 603 0 
L 603 3500 
z
M 603 4863 
L 1178 4863 
L 1178 4134 
L 603 4134 
L 603 4863 
z
" transform="scale(0.015625)"/>
       <path id="DejaVuSans-67" d="M 2906 1791 
Q 2906 2416 2648 2759 
Q 2391 3103 1925 3103 
Q 1463 3103 1205 2759 
Q 947 2416 947 1791 
Q 947 1169 1205 825 
Q 1463 481 1925 481 
Q 2391 481 2648 825 
Q 2906 1169 2906 1791 
z
M 3481 434 
Q 3481 -459 3084 -895 
Q 2688 -1331 1869 -1331 
Q 1566 -1331 1297 -1286 
Q 1028 -1241 775 -1147 
L 775 -588 
Q 1028 -725 1275 -790 
Q 1522 -856 1778 -856 
Q 2344 -856 2625 -561 
Q 2906 -266 2906 331 
L 2906 616 
Q 2728 306 2450 153 
Q 2172 0 1784 0 
Q 1141 0 747 490 
Q 353 981 353 1791 
Q 353 2603 747 3093 
Q 1141 3584 1784 3584 
Q 2172 3584 2450 3431 
Q 2728 3278 2906 2969 
L 2906 3500 
L 3481 3500 
L 3481 434 
z
" transform="scale(0.015625)"/>
      </defs>
      <use xlink:href="#DejaVuSans-41"/>
      <use xlink:href="#DejaVuSans-62" x="68.408203"/>
      <use xlink:href="#DejaVuSans-73" x="131.884766"/>
      <use xlink:href="#DejaVuSans-6f" x="183.984375"/>
      <use xlink:href="#DejaVuSans-6c" x="245.166016"/>
      <use xlink:href="#DejaVuSans-75" x="272.949219"/>
      <use xlink:href="#DejaVuSans-74" x="336.328125"/>
      <use xlink:href="#DejaVuSans-77" x="375.537109"/>
      <use xlink:href="#DejaVuSans-65" x="457.324219"/>
      <use xlink:href="#DejaVuSans-72" x="518.847656"/>
      <use xlink:href="#DejaVuSans-74" x="559.960938"/>
      <use xlink:href="#DejaVuSans-20" x="599.169922"/>
      <use xlink:href="#DejaVuSans-64" x="630.957031"/>
      <use xlink:href="#DejaVuSans-65" x="694.433594"/>
      <use xlink:href="#DejaVuSans-72" x="755.957031"/>
      <use xlink:href="#DejaVuSans-20" x="797.070312"/>
      <use xlink:href="#DejaVuSans-42" x="828.857422"/>
      <use xlink:href="#DejaVuSans-65" x="897.460938"/>
      <use xlink:href="#DejaVuSans-73" x="958.984375"/>
      <use xlink:href="#DejaVuSans-63" x="1011.083984"/>
      <use xlink:href="#DejaVuSans-68" x="1066.064453"/>
      <use xlink:href="#DejaVuSans-6c" x="1129.443359"/>
      <use xlink:href="#DejaVuSans-65" x="1157.226562"/>
      <use xlink:href="#DejaVuSans-75" x="1218.75"/>
      <use xlink:href="#DejaVuSans-6e" x="1282.128906"/>
      <use xlink:href="#DejaVuSans-69" x="1345.507812"/>
      <use xlink:href="#DejaVuSans-67" x="1373.291016"/>
      <use xlink:href="#DejaVuSans-75" x="1436.767578"/>
      <use xlink:href="#DejaVuSans-6e" x="1500.146484"/>
      <use xlink:href="#DejaVuSans-67" x="1563.525391"/>
      <use xlink:href="#DejaVuSans-65" x="1627.001953"/>
      <use xlink:href="#DejaVuSans-6e" x="1688.525391"/>
     </g>
    </g>
   </g>
   <g id="matplotlib.axis_2">
    <g id="ytick_1">
     <g id="line2d_17">
      <path d="M 172.8 322.496933 
L 1244.16 322.496933 
" clip-path="url(#pabefd5ccc7)" style="fill: none; stroke-dasharray: 1.85,0.8; stroke-dashoffset: 0; stroke: #b2b2b2; stroke-width: 0.5"/>
     </g>
     <g id="line2d_18">
      <defs>
       <path id="mc843de8913" d="M 0 0 
L 3.5 0 
" style="stroke: #000000; stroke-width: 0.8"/>
      </defs>
      <g>
       <use xlink:href="#mc843de8913" x="172.8" y="322.496933" style="stroke: #000000; stroke-width: 0.8"/>
      </g>
     </g>
     <g id="text_10">
      <!-- 0 -->
      <g transform="translate(162.9375 326.296152) scale(0.1 -0.1)">
       <use xlink:href="#DejaVuSans-30"/>
      </g>
     </g>
    </g>
    <g id="ytick_2">
     <g id="line2d_19">
      <path d="M 172.8 293.842201 
L 1244.16 293.842201 
" clip-path="url(#pabefd5ccc7)" style="fill: none; stroke-dasharray: 1.85,0.8; stroke-dashoffset: 0; stroke: #b2b2b2; stroke-width: 0.5"/>
     </g>
     <g id="line2d_20">
      <g>
       <use xlink:href="#mc843de8913" x="172.8" y="293.842201" style="stroke: #000000; stroke-width: 0.8"/>
      </g>
     </g>
     <g id="text_11">
      <!-- 10 -->
      <g transform="translate(156.575 297.64142) scale(0.1 -0.1)">
       <use xlink:href="#DejaVuSans-31"/>
       <use xlink:href="#DejaVuSans-30" x="63.623047"/>
      </g>
     </g>
    </g>
    <g id="ytick_3">
     <g id="line2d_21">
      <path d="M 172.8 265.187469 
L 1244.16 265.187469 
" clip-path="url(#pabefd5ccc7)" style="fill: none; stroke-dasharray: 1.85,0.8; stroke-dashoffset: 0; stroke: #b2b2b2; stroke-width: 0.5"/>
     </g>
     <g id="line2d_22">
      <g>
       <use xlink:href="#mc843de8913" x="172.8" y="265.187469" style="stroke: #000000; stroke-width: 0.8"/>
      </g>
     </g>
     <g id="text_12">
      <!-- 20 -->
      <g transform="translate(156.575 268.986688) scale(0.1 -0.1)">
       <use xlink:href="#DejaVuSans-32"/>
       <use xlink:href="#DejaVuSans-30" x="63.623047"/>
      </g>
     </g>
    </g>
    <g id="ytick_4">
     <g id="line2d_23">
      <path d="M 172.8 236.532737 
L 1244.16 236.532737 
" clip-path="url(#pabefd5ccc7)" style="fill: none; stroke-dasharray: 1.85,0.8; stroke-dashoffset: 0; stroke: #b2b2b2; stroke-width: 0.5"/>
     </g>
     <g id="line2d_24">
      <g>
       <use xlink:href="#mc843de8913" x="172.8" y="236.532737" style="stroke: #000000; stroke-width: 0.8"/>
      </g>
     </g>
     <g id="text_13">
      <!-- 30 -->
      <g transform="translate(156.575 240.331956) scale(0.1 -0.1)">
       <defs>
        <path id="DejaVuSans-33" d="M 2597 2516 
Q 3050 2419 3304 2112 
Q 3559 1806 3559 1356 
Q 3559 666 3084 287 
Q 2609 -91 1734 -91 
Q 1441 -91 1130 -33 
Q 819 25 488 141 
L 488 750 
Q 750 597 1062 519 
Q 1375 441 1716 441 
Q 2309 441 2620 675 
Q 2931 909 2931 1356 
Q 2931 1769 2642 2001 
Q 2353 2234 1838 2234 
L 1294 2234 
L 1294 2753 
L 1863 2753 
Q 2328 2753 2575 2939 
Q 2822 3125 2822 3475 
Q 2822 3834 2567 4026 
Q 2313 4219 1838 4219 
Q 1578 4219 1281 4162 
Q 984 4106 628 3988 
L 628 4550 
Q 988 4650 1302 4700 
Q 1616 4750 1894 4750 
Q 2613 4750 3031 4423 
Q 3450 4097 3450 3541 
Q 3450 3153 3228 2886 
Q 3006 2619 2597 2516 
z
" transform="scale(0.015625)"/>
       </defs>
       <use xlink:href="#DejaVuSans-33"/>
       <use xlink:href="#DejaVuSans-30" x="63.623047"/>
      </g>
     </g>
    </g>
    <g id="ytick_5">
     <g id="line2d_25">
      <path d="M 172.8 207.878005 
L 1244.16 207.878005 
" clip-path="url(#pabefd5ccc7)" style="fill: none; stroke-dasharray: 1.85,0.8; stroke-dashoffset: 0; stroke: #b2b2b2; stroke-width: 0.5"/>
     </g>
     <g id="line2d_26">
      <g>
       <use xlink:href="#mc843de8913" x="172.8" y="207.878005" style="stroke: #000000; stroke-width: 0.8"/>
      </g>
     </g>
     <g id="text_14">
      <!-- 40 -->
      <g transform="translate(156.575 211.677224) scale(0.1 -0.1)">
       <use xlink:href="#DejaVuSans-34"/>
       <use xlink:href="#DejaVuSans-30" x="63.623047"/>
      </g>
     </g>
    </g>
    <g id="ytick_6">
     <g id="line2d_27">
      <path d="M 172.8 179.223273 
L 1244.16 179.223273 
" clip-path="url(#pabefd5ccc7)" style="fill: none; stroke-dasharray: 1.85,0.8; stroke-dashoffset: 0; stroke: #b2b2b2; stroke-width: 0.5"/>
     </g>
     <g id="line2d_28">
      <g>
       <use xlink:href="#mc843de8913" x="172.8" y="179.223273" style="stroke: #000000; stroke-width: 0.8"/>
      </g>
     </g>
     <g id="text_15">
      <!-- 50 -->
      <g transform="translate(156.575 183.022492) scale(0.1 -0.1)">
       <defs>
        <path id="DejaVuSans-35" d="M 691 4666 
L 3169 4666 
L 3169 4134 
L 1269 4134 
L 1269 2991 
Q 1406 3038 1543 3061 
Q 1681 3084 1819 3084 
Q 2600 3084 3056 2656 
Q 3513 2228 3513 1497 
Q 3513 744 3044 326 
Q 2575 -91 1722 -91 
Q 1428 -91 1123 -41 
Q 819 9 494 109 
L 494 744 
Q 775 591 1075 516 
Q 1375 441 1709 441 
Q 2250 441 2565 725 
Q 2881 1009 2881 1497 
Q 2881 1984 2565 2268 
Q 2250 2553 1709 2553 
Q 1456 2553 1204 2497 
Q 953 2441 691 2322 
L 691 4666 
z
" transform="scale(0.015625)"/>
       </defs>
       <use xlink:href="#DejaVuSans-35"/>
       <use xlink:href="#DejaVuSans-30" x="63.623047"/>
      </g>
     </g>
    </g>
    <g id="ytick_7">
     <g id="line2d_29">
      <path d="M 172.8 150.568541 
L 1244.16 150.568541 
" clip-path="url(#pabefd5ccc7)" style="fill: none; stroke-dasharray: 1.85,0.8; stroke-dashoffset: 0; stroke: #b2b2b2; stroke-width: 0.5"/>
     </g>
     <g id="line2d_30">
      <g>
       <use xlink:href="#mc843de8913" x="172.8" y="150.568541" style="stroke: #000000; stroke-width: 0.8"/>
      </g>
     </g>
     <g id="text_16">
      <!-- 60 -->
      <g transform="translate(156.575 154.36776) scale(0.1 -0.1)">
       <use xlink:href="#DejaVuSans-36"/>
       <use xlink:href="#DejaVuSans-30" x="63.623047"/>
      </g>
     </g>
    </g>
    <g id="ytick_8">
     <g id="line2d_31">
      <path d="M 172.8 121.913809 
L 1244.16 121.913809 
" clip-path="url(#pabefd5ccc7)" style="fill: none; stroke-dasharray: 1.85,0.8; stroke-dashoffset: 0; stroke: #b2b2b2; stroke-width: 0.5"/>
     </g>
     <g id="line2d_32">
      <g>
       <use xlink:href="#mc843de8913" x="172.8" y="121.913809" style="stroke: #000000; stroke-width: 0.8"/>
      </g>
     </g>
     <g id="text_17">
      <!-- 70 -->
      <g transform="translate(156.575 125.713028) scale(0.1 -0.1)">
       <defs>
        <path id="DejaVuSans-37" d="M 525 4666 
L 3525 4666 
L 3525 4397 
L 1831 0 
L 1172 0 
L 2766 4134 
L 525 4134 
L 525 4666 
z
" transform="scale(0.015625)"/>
       </defs>
       <use xlink:href="#DejaVuSans-37"/>
       <use xlink:href="#DejaVuSans-30" x="63.623047"/>
      </g>
     </g>
    </g>
    <g id="ytick_9">
     <g id="line2d_33">
      <path d="M 172.8 93.259077 
L 1244.16 93.259077 
" clip-path="url(#pabefd5ccc7)" style="fill: none; stroke-dasharray: 1.85,0.8; stroke-dashoffset: 0; stroke: #b2b2b2; stroke-width: 0.5"/>
     </g>
     <g id="line2d_34">
      <g>
       <use xlink:href="#mc843de8913" x="172.8" y="93.259077" style="stroke: #000000; stroke-width: 0.8"/>
      </g>
     </g>
     <g id="text_18">
      <!-- 80 -->
      <g transform="translate(156.575 97.058296) scale(0.1 -0.1)">
       <use xlink:href="#DejaVuSans-38"/>
       <use xlink:href="#DejaVuSans-30" x="63.623047"/>
      </g>
     </g>
    </g>
    <g id="text_19">
     <!-- Beschleunigung in m/s^2 -->
     <g transform="translate(150.079375 284.099063) rotate(-90) scale(0.12 -0.12)">
      <defs>
       <path id="DejaVuSans-6d" d="M 3328 2828 
Q 3544 3216 3844 3400 
Q 4144 3584 4550 3584 
Q 5097 3584 5394 3201 
Q 5691 2819 5691 2113 
L 5691 0 
L 5113 0 
L 5113 2094 
Q 5113 2597 4934 2840 
Q 4756 3084 4391 3084 
Q 3944 3084 3684 2787 
Q 3425 2491 3425 1978 
L 3425 0 
L 2847 0 
L 2847 2094 
Q 2847 2600 2669 2842 
Q 2491 3084 2119 3084 
Q 1678 3084 1418 2786 
Q 1159 2488 1159 1978 
L 1159 0 
L 581 0 
L 581 3500 
L 1159 3500 
L 1159 2956 
Q 1356 3278 1631 3431 
Q 1906 3584 2284 3584 
Q 2666 3584 2933 3390 
Q 3200 3197 3328 2828 
z
" transform="scale(0.015625)"/>
       <path id="DejaVuSans-2f" d="M 1625 4666 
L 2156 4666 
L 531 -594 
L 0 -594 
L 1625 4666 
z
" transform="scale(0.015625)"/>
       <path id="DejaVuSans-5e" d="M 2988 4666 
L 4684 2925 
L 4056 2925 
L 2681 4159 
L 1306 2925 
L 678 2925 
L 2375 4666 
L 2988 4666 
z
" transform="scale(0.015625)"/>
      </defs>
      <use xlink:href="#DejaVuSans-42"/>
      <use xlink:href="#DejaVuSans-65" x="68.603516"/>
      <use xlink:href="#DejaVuSans-73" x="130.126953"/>
      <use xlink:href="#DejaVuSans-63" x="182.226562"/>
      <use xlink:href="#DejaVuSans-68" x="237.207031"/>
      <use xlink:href="#DejaVuSans-6c" x="300.585938"/>
      <use xlink:href="#DejaVuSans-65" x="328.369141"/>
      <use xlink:href="#DejaVuSans-75" x="389.892578"/>
      <use xlink:href="#DejaVuSans-6e" x="453.271484"/>
      <use xlink:href="#DejaVuSans-69" x="516.650391"/>
      <use xlink:href="#DejaVuSans-67" x="544.433594"/>
      <use xlink:href="#DejaVuSans-75" x="607.910156"/>
      <use xlink:href="#DejaVuSans-6e" x="671.289062"/>
      <use xlink:href="#DejaVuSans-67" x="734.667969"/>
      <use xlink:href="#DejaVuSans-20" x="798.144531"/>
      <use xlink:href="#DejaVuSans-69" x="829.931641"/>
      <use xlink:href="#DejaVuSans-6e" x="857.714844"/>
      <use xlink:href="#DejaVuSans-20" x="921.09375"/>
      <use xlink:href="#DejaVuSans-6d" x="952.880859"/>
      <use xlink:href="#DejaVuSans-2f" x="1050.292969"/>
      <use xlink:href="#DejaVuSans-73" x="1083.984375"/>
      <use xlink:href="#DejaVuSans-5e" x="1136.083984"/>
      <use xlink:href="#DejaVuSans-32" x="1219.873047"/>
     </g>
    </g>
   </g>
   <g id="line2d_35">
    <path d="M 221.498182 288.856278 
L 222.148792 288.856278 
L 222.799402 286.191388 
L 223.450013 286.850447 
L 224.100623 287.194303 
L 225.401844 287.136994 
L 226.052454 286.048114 
L 226.703064 285.761567 
L 227.353675 282.724165 
L 228.004285 282.724165 
L 228.654895 279.228288 
L 229.305506 273.783889 
L 229.956116 277.852861 
L 230.606726 278.053444 
L 231.257336 278.053444 
L 231.907947 276.735326 
L 232.558557 274.299674 
L 233.209167 274.070436 
L 233.859778 274.500257 
L 234.510388 274.500257 
L 235.160998 273.726579 
L 235.811609 273.66927 
L 236.462219 276.964564 
L 237.112829 279.428871 
L 237.76344 279.428871 
L 238.41405 280.746989 
L 239.06466 282.523582 
L 240.365881 281.348738 
L 241.016491 281.348738 
L 241.667101 281.033536 
L 242.317712 282.351654 
L 242.968322 284.070938 
L 243.618932 286.735828 
L 244.920153 286.678518 
L 245.570763 288.598385 
L 246.221374 289.114171 
L 246.871984 289.429373 
L 247.522594 289.429373 
L 248.173205 289.601301 
L 248.823815 293.011214 
L 249.474425 294.157403 
L 250.125036 294.272022 
L 250.775646 294.272022 
L 251.426256 294.902426 
L 252.076866 295.905342 
L 253.378087 295.160319 
L 254.028697 295.160319 
L 254.679308 295.991306 
L 255.329918 295.475521 
L 255.980528 294.272022 
L 256.631139 294.042784 
L 257.281749 294.042784 
L 257.932359 292.667357 
L 258.58297 292.781976 
L 259.23358 294.01413 
L 259.88419 293.441035 
L 260.534801 293.441035 
L 261.185411 290.661526 
L 261.836021 288.541076 
L 262.486631 287.910672 
L 263.137242 287.796053 
L 263.787852 287.796053 
L 264.438462 286.965066 
L 265.089073 276.448779 
L 265.739683 293.584309 
L 266.390293 292.810631 
L 267.040904 292.810631 
L 267.691514 289.200135 
L 268.342124 284.214211 
L 268.992735 285.618293 
L 269.643345 286.363316 
L 270.293955 286.363316 
L 270.944565 286.134078 
L 271.595176 287.967981 
L 272.245786 288.13991 
L 272.896396 288.62704 
L 273.547007 288.62704 
L 274.197617 287.624124 
L 274.848227 289.114171 
L 275.498838 286.334661 
L 276.149448 287.566815 
L 276.800058 287.566815 
L 277.450669 289.085516 
L 278.101279 294.701843 
L 278.751889 295.53283 
L 279.4025 295.733414 
L 280.05311 295.733414 
L 280.70372 296.191889 
L 281.35433 297.424043 
L 282.004941 298.025792 
L 282.655551 298.25503 
L 283.306161 298.25503 
L 283.956772 298.484268 
L 284.607382 291.779061 
L 285.257992 289.142825 
L 285.908603 290.948073 
L 286.559213 290.948073 
L 287.209823 291.435204 
L 287.860434 287.194303 
L 288.511044 286.821792 
L 289.161654 287.910672 
L 289.812265 287.910672 
L 290.462875 284.672687 
L 291.113485 280.804298 
L 291.764095 280.603715 
L 292.414706 278.082099 
L 293.065316 278.082099 
L 293.715926 278.540574 
L 294.366537 281.348738 
L 295.017147 282.75282 
L 295.667757 282.20838 
L 296.968978 282.237035 
L 297.619588 283.039367 
L 298.270199 282.666856 
L 298.920809 283.78439 
L 299.571419 283.78439 
L 300.22203 285.675603 
L 300.87264 288.397802 
L 301.52325 289.114171 
L 302.17386 288.713004 
L 302.824471 288.713004 
L 303.475081 288.254529 
L 304.776302 284.185557 
L 305.426912 281.205464 
L 306.077522 281.205464 
L 306.728133 278.626539 
L 307.378743 275.30259 
L 308.029353 275.102007 
L 308.679964 277.824206 
L 309.330574 277.824206 
L 310.631794 287.280268 
L 311.933015 289.973812 
L 312.583625 289.973812 
L 313.234236 291.062692 
L 313.884846 295.762068 
L 314.535456 296.105925 
L 315.186067 295.618795 
L 316.487287 295.618795 
L 317.137898 296.507091 
L 317.788508 296.421127 
L 318.439118 295.446866 
L 319.089729 295.446866 
L 319.740339 293.95682 
L 320.390949 293.039869 
L 321.041559 292.638703 
L 321.69217 293.154488 
L 322.34278 293.154488 
L 322.99339 293.584309 
L 323.644001 292.667357 
L 324.294611 293.498345 
L 324.945221 294.100094 
L 325.595832 294.100094 
L 326.246442 293.698928 
L 326.897052 290.604217 
L 327.547663 291.177311 
L 328.848883 291.234621 
L 329.499494 290.604217 
L 330.150104 291.29193 
L 330.800714 290.518252 
L 331.451324 290.862109 
L 332.101935 290.862109 
L 332.752545 290.690181 
L 333.403155 291.950989 
L 334.053766 291.29193 
L 335.354986 291.34924 
L 336.005597 292.180227 
L 336.656207 293.870856 
L 337.306817 294.472605 
L 337.957428 296.908258 
L 338.608038 296.908258 
L 339.258648 297.796554 
L 339.909259 299.200636 
L 341.210479 296.392472 
L 341.861089 296.392472 
L 342.5117 295.733414 
L 343.16231 291.779061 
L 343.81292 290.432288 
L 344.463531 288.68435 
L 345.114141 288.68435 
L 345.764751 287.796053 
L 346.415362 285.704257 
L 347.065972 284.672687 
L 347.716582 287.710089 
L 348.367193 287.710089 
L 349.017803 287.824708 
L 349.668413 285.41771 
L 350.319024 290.317669 
L 350.969634 294.042784 
L 351.620244 294.042784 
L 352.270854 293.441035 
L 352.921465 294.644534 
L 353.572075 295.53283 
L 354.222685 295.017045 
L 354.873296 295.017045 
L 356.174516 290.518252 
L 356.825127 289.945158 
L 357.475737 289.200135 
L 358.776958 289.228789 
L 359.427568 291.750406 
L 360.078178 292.953905 
L 360.728788 293.183142 
L 361.379399 293.183142 
L 362.030009 294.214713 
L 362.680619 295.905342 
L 363.33123 294.214713 
L 363.98184 296.105925 
L 364.63245 296.105925 
L 365.283061 296.67902 
L 365.933671 295.790723 
L 366.584281 295.704759 
L 367.234892 291.664442 
L 367.885502 291.664442 
L 368.536112 290.403633 
L 369.186723 287.509506 
L 369.837333 288.455112 
L 370.487943 286.965066 
L 371.138553 286.965066 
L 371.789164 287.452196 
L 372.439774 293.641618 
L 373.090384 292.094263 
L 373.740995 292.896595 
L 375.042215 292.92525 
L 375.692826 294.214713 
L 376.343436 293.383726 
L 376.994046 292.753321 
L 377.644657 292.753321 
L 378.295267 291.779061 
L 378.945877 290.174396 
L 379.596488 289.773229 
L 380.247098 291.320585 
L 380.897708 291.320585 
L 381.548318 291.607132 
L 382.198929 294.443951 
L 382.849539 294.386641 
L 383.500149 294.902426 
L 384.15076 294.902426 
L 386.102591 292.896595 
L 387.403811 292.953905 
L 388.054422 292.266191 
L 388.705032 290.546907 
L 389.355642 290.317669 
L 391.307473 290.289015 
L 391.958083 292.065608 
L 392.608694 292.180227 
L 393.259304 292.524084 
L 393.909914 292.524084 
L 394.560525 293.756237 
L 395.211135 292.953905 
L 395.861745 293.641618 
L 396.512356 292.3235 
L 397.162966 292.3235 
L 397.813576 291.979644 
L 398.464187 291.034038 
L 399.114797 290.346324 
L 399.765407 290.174396 
L 400.416017 290.174396 
L 401.717238 290.604217 
L 402.367848 290.231705 
L 403.018459 290.718836 
L 403.669069 290.718836 
L 404.319679 292.266191 
L 404.97029 293.41238 
L 405.6209 293.526999 
L 406.27151 293.183142 
L 406.922121 293.183142 
L 407.572731 292.753321 
L 408.223341 293.068524 
L 410.175172 292.581393 
L 410.825782 293.154488 
L 411.476393 292.524084 
L 412.127003 292.466774 
L 413.428224 292.524084 
L 414.078834 292.495429 
L 415.380055 293.41238 
L 416.681275 293.383726 
L 417.331886 292.495429 
L 417.982496 292.610048 
L 418.633106 292.92525 
L 419.934327 292.896595 
L 420.584937 292.151572 
L 421.235547 291.979644 
L 421.886158 292.237536 
L 422.536768 291.521168 
L 423.187378 291.521168 
L 423.837989 291.320585 
L 424.488599 292.495429 
L 425.139209 292.036953 
L 425.78982 292.208882 
L 427.09104 292.208882 
L 427.741651 291.664442 
L 428.392261 291.83637 
L 429.042871 292.208882 
L 429.693482 292.208882 
L 430.344092 291.89368 
L 430.994702 291.062692 
L 431.645312 291.234621 
L 432.946533 291.148656 
L 433.597143 291.120002 
L 434.247754 291.807715 
L 434.898364 291.922334 
L 435.548974 291.578477 
L 436.199585 291.578477 
L 436.850195 291.406549 
L 437.500805 291.750406 
L 438.151416 291.205966 
L 438.802026 291.034038 
L 439.452636 291.034038 
L 440.103246 291.521168 
L 440.753857 290.948073 
L 441.404467 290.8048 
L 442.055077 292.352155 
L 442.705688 292.352155 
L 443.356298 292.810631 
L 444.006908 291.607132 
L 444.657519 291.062692 
L 445.308129 291.234621 
L 446.60935 291.29193 
L 447.25996 290.546907 
L 447.91057 291.148656 
L 448.561181 292.036953 
L 449.211791 292.036953 
L 449.862401 292.237536 
L 450.513011 291.549823 
L 451.163622 291.062692 
L 451.814232 291.377894 
L 452.464842 291.377894 
L 453.115453 292.667357 
L 453.766063 293.297761 
L 454.416673 292.810631 
L 455.067284 292.524084 
L 455.717894 292.524084 
L 457.019115 292.065608 
L 457.669725 291.463859 
L 458.320335 291.091347 
L 458.970946 291.091347 
L 459.621556 291.549823 
L 460.272166 291.463859 
L 460.922776 290.862109 
L 461.573387 291.148656 
L 462.223997 291.148656 
L 463.525218 292.122917 
L 464.175828 292.524084 
L 464.826438 292.753321 
L 466.127659 292.839286 
L 466.778269 293.269107 
L 468.07949 293.125833 
L 468.7301 293.125833 
L 469.380711 292.495429 
L 470.681931 292.552738 
L 471.332541 292.180227 
L 471.983152 292.180227 
L 472.633762 291.635787 
L 473.284372 291.693096 
L 475.886814 292.495429 
L 476.537424 293.183142 
L 477.188034 293.183142 
L 477.838645 293.297761 
L 478.489255 293.297761 
L 479.139865 293.154488 
L 479.790475 293.383726 
L 480.441086 293.154488 
L 481.091696 293.498345 
L 481.742306 293.498345 
L 482.392917 293.240452 
L 483.694137 291.693096 
L 484.344748 290.8048 
L 484.995358 290.8048 
L 485.645968 291.205966 
L 486.296579 291.177311 
L 486.947189 290.8048 
L 487.597799 290.919419 
L 488.24841 290.919419 
L 488.89902 291.578477 
L 489.54963 291.005383 
L 490.20024 290.088431 
L 490.850851 290.518252 
L 491.501461 290.518252 
L 492.152071 290.346324 
L 492.802682 289.744575 
L 493.453292 289.65861 
L 494.754513 289.71592 
L 495.405123 289.572646 
L 496.055733 289.801884 
L 496.706344 289.429373 
L 497.356954 289.801884 
L 498.007564 289.801884 
L 498.658175 291.34924 
L 499.308785 291.807715 
L 499.959395 291.435204 
L 500.610005 291.578477 
L 501.260616 291.578477 
L 501.911226 291.779061 
L 502.561836 291.521168 
L 503.212447 291.406549 
L 503.863057 291.148656 
L 505.814888 291.148656 
L 506.465498 290.948073 
L 507.116109 290.890764 
L 507.766719 291.062692 
L 509.06794 290.74749 
L 509.71855 290.289015 
L 511.01977 290.289015 
L 511.670381 290.403633 
L 512.320991 290.862109 
L 512.971601 291.091347 
L 514.272822 290.976728 
L 514.923432 291.463859 
L 515.574043 291.607132 
L 516.224653 291.521168 
L 516.875263 291.034038 
L 518.176484 290.976728 
L 518.827094 291.435204 
L 520.128315 291.578477 
L 520.778925 291.578477 
L 521.429535 293.269107 
L 522.080146 294.186058 
L 522.730756 293.928165 
L 523.381366 294.100094 
L 524.031977 294.959736 
L 524.682587 294.272022 
L 525.333197 294.529915 
L 525.983808 294.243368 
L 526.634418 293.097178 
L 527.285028 292.352155 
L 527.935639 291.865025 
L 528.586249 291.549823 
L 529.887469 291.263275 
L 530.53808 291.263275 
L 531.18869 291.120002 
L 531.8393 290.833454 
L 533.140521 291.406549 
L 533.791131 291.406549 
L 534.441742 291.779061 
L 535.092352 292.38081 
L 535.742962 292.696012 
L 536.393573 293.870856 
L 537.044183 294.100094 
L 537.694793 294.472605 
L 538.345404 294.55857 
L 540.297234 294.529915 
L 540.947845 293.928165 
L 541.598455 293.097178 
L 542.899676 292.466774 
L 543.550286 292.466774 
L 544.200896 292.839286 
L 544.851507 292.438119 
L 546.803338 291.779061 
L 547.453948 292.036953 
L 548.104558 291.750406 
L 548.755169 292.151572 
L 550.056389 292.122917 
L 552.65883 291.435204 
L 553.309441 291.607132 
L 553.960051 291.377894 
L 554.610661 291.463859 
L 555.261272 290.919419 
L 555.911882 289.973812 
L 556.562492 290.690181 
L 557.213103 290.632871 
L 557.863713 289.142825 
L 558.514323 289.973812 
L 559.164934 290.546907 
L 559.815544 290.546907 
L 560.466154 290.145741 
L 561.116764 289.228789 
L 561.767375 289.543991 
L 562.417985 289.65861 
L 563.068595 291.005383 
L 563.719206 290.374979 
L 565.020426 291.377894 
L 565.671037 291.34924 
L 566.321647 291.492513 
L 566.972257 291.263275 
L 567.622868 290.890764 
L 568.924088 292.466774 
L 569.574698 292.466774 
L 570.225309 292.581393 
L 570.875919 293.068524 
L 571.526529 293.698928 
L 572.17714 293.441035 
L 574.128971 293.183142 
L 574.779581 292.982559 
L 575.430191 293.784892 
L 576.731412 293.842201 
L 577.382022 297.252114 
L 578.683243 299.086017 
L 579.333853 299.086017 
L 579.984463 299.573148 
L 580.635074 303.126334 
L 581.285684 303.470191 
L 581.936294 303.64212 
L 582.586905 302.753823 
L 583.888125 301.865526 
L 584.538736 301.836872 
L 585.189346 303.09768 
L 585.839956 303.069025 
L 586.490567 303.64212 
L 587.141177 306.507593 
L 588.442398 311.350243 
L 589.093008 311.350243 
L 589.743618 312.639706 
L 590.394228 315.705762 
L 591.044839 317.339082 
L 591.695449 318.399307 
L 592.346059 316.536749 
L 592.99667 315.992309 
L 593.64728 316.680023 
L 594.29789 318.771818 
L 594.948501 314.387644 
L 595.599111 311.264278 
L 596.249721 306.049117 
L 596.900332 309.774232 
L 597.550942 303.498846 
L 598.201552 295.017045 
L 598.852163 297.338079 
L 599.502773 288.62704 
L 600.153383 290.948073 
L 600.803993 291.234621 
L 602.105214 303.556155 
L 602.755824 285.904841 
L 603.406435 277.96748 
L 604.057045 199.654097 
L 604.707655 104.520387 
L 605.358266 110.451916 
L 606.008876 139.192612 
L 606.659486 109.706893 
L 607.310097 171.429186 
L 607.960707 206.989708 
L 608.611317 127.616101 
L 609.261927 95.408182 
L 609.912538 120.509727 
L 610.563148 188.908573 
L 611.213758 221.28842 
L 611.864369 218.766803 
L 612.514979 253.009208 
L 613.165589 277.42304 
L 613.8162 275.503173 
L 614.46681 263.468185 
L 615.11742 264.184554 
L 615.768031 265.559981 
L 616.418641 290.661526 
L 617.069251 293.784892 
L 617.719862 294.01413 
L 618.370472 290.690181 
L 619.021082 289.114171 
L 619.671692 289.257444 
L 620.322303 297.16615 
L 620.972913 309.287102 
L 621.623523 310.748493 
L 622.274134 309.860197 
L 622.924744 307.481854 
L 623.575354 304.100595 
L 624.225965 305.934498 
L 624.876575 308.742662 
L 625.527185 307.481854 
L 626.828406 303.412882 
L 627.479016 298.942744 
L 628.129627 290.890764 
L 628.780237 291.549823 
L 629.430847 291.205966 
L 630.081457 291.635787 
L 630.732068 285.990805 
L 631.382678 285.188472 
L 632.033288 285.503674 
L 632.683899 284.529413 
L 633.985119 280.345822 
L 634.63573 283.268605 
L 635.28634 280.689679 
L 635.93695 282.75282 
L 636.587561 281.835869 
L 637.238171 280.517751 
L 637.888781 276.620707 
L 638.539392 275.531828 
L 639.190002 273.984472 
L 639.840612 273.210794 
L 641.792443 283.813045 
L 642.443053 287.767398 
L 643.093664 294.644534 
L 644.394884 298.111756 
L 645.045495 296.707674 
L 645.696105 289.314754 
L 646.346715 296.62171 
L 646.997326 288.283183 
L 647.647936 289.801884 
L 648.949156 290.20305 
L 649.599767 292.008298 
L 650.900987 288.0826 
L 651.551598 286.764482 
L 652.202208 286.162733 
L 652.852818 285.732912 
L 653.503429 286.019459 
L 654.154039 286.879101 
L 654.804649 288.598385 
L 655.45526 289.601301 
L 656.10587 291.005383 
L 656.75648 291.922334 
L 657.407091 291.406549 
L 658.057701 291.377894 
L 658.708311 291.83637 
L 659.358921 292.524084 
L 660.009532 294.071439 
L 660.660142 294.931081 
L 661.310752 295.360902 
L 661.961363 294.100094 
L 662.611973 295.074355 
L 663.262583 293.039869 
L 663.913194 292.438119 
L 664.563804 292.294846 
L 665.214414 291.377894 
L 665.865025 291.062692 
L 666.515635 291.034038 
L 667.166245 291.263275 
L 668.467466 290.919419 
L 669.118076 290.890764 
L 669.768686 290.26036 
L 670.419297 290.031122 
L 671.069907 291.205966 
L 671.720517 290.031122 
L 672.371128 288.283183 
L 673.021738 289.830539 
L 673.672348 289.973812 
L 674.322959 290.26036 
L 674.973569 289.887848 
L 675.624179 289.916503 
L 676.27479 291.005383 
L 676.9254 291.29193 
L 677.57601 291.406549 
L 678.877231 292.094263 
L 679.527841 293.555654 
L 680.178451 293.870856 
L 683.431503 293.355071 
L 684.082113 293.498345 
L 684.732724 293.068524 
L 686.033944 293.383726 
L 686.684555 292.724667 
L 687.335165 293.097178 
L 687.985775 293.269107 
L 688.636385 293.068524 
L 689.286996 293.41238 
L 690.588216 293.039869 
L 691.238827 292.266191 
L 692.540047 292.208882 
L 693.190658 291.950989 
L 693.841268 292.180227 
L 694.491878 292.065608 
L 695.793099 292.3235 
L 697.09432 291.83637 
L 698.39554 291.635787 
L 699.04615 291.979644 
L 700.347371 291.492513 
L 700.997981 291.549823 
L 701.648592 291.377894 
L 702.299202 291.406549 
L 702.949812 292.094263 
L 703.600423 292.036953 
L 704.901643 292.180227 
L 705.552254 292.581393 
L 706.853474 292.781976 
L 707.504085 292.810631 
L 708.805305 292.466774 
L 709.455915 292.151572 
L 710.106526 293.068524 
L 710.757136 293.154488 
L 711.407746 291.807715 
L 712.058357 293.039869 
L 712.708967 293.526999 
L 713.359577 293.183142 
L 714.010188 293.297761 
L 714.660798 292.409465 
L 715.311408 292.896595 
L 715.962019 293.154488 
L 716.612629 292.92525 
L 717.263239 292.86794 
L 717.91385 292.38081 
L 718.56446 292.466774 
L 719.86568 292.151572 
L 721.817511 291.979644 
L 722.468122 292.122917 
L 723.118732 292.036953 
L 724.419953 292.180227 
L 725.070563 293.011214 
L 726.371784 292.237536 
L 727.022394 292.294846 
L 727.673004 292.896595 
L 728.323615 293.068524 
L 728.974225 292.92525 
L 729.624835 292.495429 
L 730.275445 292.982559 
L 730.926056 292.610048 
L 731.576666 292.610048 
L 732.227276 292.495429 
L 732.877887 292.495429 
L 733.528497 292.724667 
L 734.179107 292.638703 
L 734.829718 292.839286 
L 736.130938 292.781976 
L 736.781549 292.638703 
L 738.082769 292.953905 
L 738.733379 292.638703 
L 739.38399 292.982559 
L 740.0346 292.724667 
L 740.68521 292.86794 
L 741.335821 292.753321 
L 742.637041 293.670273 
L 743.287652 293.211797 
L 743.938262 293.383726 
L 744.588872 292.696012 
L 745.239483 294.988391 
L 745.890093 293.612963 
L 746.540703 292.753321 
L 747.191314 292.810631 
L 748.492534 294.873772 
L 749.143144 292.638703 
L 749.793755 292.638703 
L 750.444365 290.833454 
L 751.094975 290.919419 
L 751.745586 291.693096 
L 752.396196 291.922334 
L 753.046806 291.435204 
L 754.348027 293.813547 
L 754.998637 293.756237 
L 755.649248 292.753321 
L 756.299858 292.151572 
L 756.950468 293.039869 
L 757.601079 293.46969 
L 759.552909 293.41238 
L 760.85413 292.266191 
L 761.50474 291.549823 
L 762.155351 292.524084 
L 763.456571 293.097178 
L 764.107182 291.492513 
L 764.757792 292.266191 
L 765.408402 292.667357 
L 766.059013 293.498345 
L 766.709623 293.211797 
L 767.360233 292.524084 
L 768.010844 292.581393 
L 768.661454 293.46969 
L 769.312064 293.727582 
L 769.962674 293.46969 
L 771.263895 293.326416 
L 771.914505 292.810631 
L 773.215726 293.269107 
L 773.866336 293.154488 
L 774.516947 292.896595 
L 775.818167 292.86794 
L 776.468778 292.753321 
L 777.119388 292.982559 
L 778.420608 293.784892 
L 779.071219 293.899511 
L 779.721829 293.756237 
L 780.372439 293.383726 
L 782.974881 293.95682 
L 783.625491 293.842201 
L 784.926712 292.753321 
L 786.227932 294.673189 
L 786.878543 293.641618 
L 787.529153 291.578477 
L 788.179763 293.498345 
L 788.830373 294.186058 
L 789.480984 294.357986 
L 790.131594 295.017045 
L 790.782204 294.386641 
L 791.432815 291.664442 
L 792.083425 290.546907 
L 792.734035 291.89368 
L 793.384646 291.779061 
L 794.035256 291.521168 
L 794.685866 291.89368 
L 795.336477 292.581393 
L 795.987087 292.352155 
L 796.637697 292.552738 
L 797.288308 292.581393 
L 797.938918 293.441035 
L 798.589528 293.612963 
L 799.240138 293.297761 
L 799.890749 293.383726 
L 800.541359 293.068524 
L 801.191969 292.896595 
L 801.84258 292.438119 
L 802.49319 294.300677 
L 803.1438 294.243368 
L 803.794411 294.759153 
L 804.445021 294.386641 
L 805.095631 294.157403 
L 805.746242 293.183142 
L 806.396852 293.584309 
L 807.047462 293.698928 
L 807.698073 293.441035 
L 808.348683 293.441035 
L 808.999293 293.125833 
L 809.649903 292.495429 
L 810.300514 292.552738 
L 810.951124 293.068524 
L 811.601734 293.154488 
L 812.252345 292.753321 
L 812.902955 292.982559 
L 813.553565 292.724667 
L 814.204176 292.839286 
L 814.854786 292.38081 
L 816.156007 293.383726 
L 816.806617 294.042784 
L 818.107837 293.727582 
L 818.758448 293.097178 
L 822.011499 293.039869 
L 823.31272 293.698928 
L 823.96333 294.55857 
L 824.613941 293.698928 
L 825.264551 292.294846 
L 825.915161 293.125833 
L 826.565772 293.240452 
L 827.216382 294.529915 
L 827.866992 294.472605 
L 828.517602 293.698928 
L 829.168213 287.624124 
L 829.818823 285.245782 
L 831.120044 291.635787 
L 831.770654 291.263275 
L 832.421264 291.750406 
L 833.071875 292.781976 
L 833.722485 292.495429 
L 834.373095 291.979644 
L 835.023706 291.922334 
L 836.324926 293.813547 
L 836.975537 294.186058 
L 838.276757 294.071439 
L 838.927367 293.097178 
L 839.577978 293.097178 
L 840.228588 292.409465 
L 840.879198 291.979644 
L 841.529809 292.610048 
L 842.180419 293.011214 
L 842.831029 292.953905 
L 844.13225 293.240452 
L 844.78286 293.555654 
L 845.433471 293.46969 
L 846.084081 291.34924 
L 846.734691 291.807715 
L 847.385302 293.985475 
L 848.035912 294.644534 
L 848.686522 292.552738 
L 849.337132 293.183142 
L 849.987743 293.326416 
L 850.638353 292.552738 
L 851.288963 292.724667 
L 851.939574 291.89368 
L 852.590184 291.521168 
L 853.240794 292.409465 
L 853.891405 292.266191 
L 855.192625 291.693096 
L 855.843236 291.320585 
L 856.493846 291.521168 
L 857.795066 292.208882 
L 858.445677 292.92525 
L 859.096287 293.240452 
L 859.746897 293.297761 
L 860.397508 293.039869 
L 861.698728 293.95682 
L 862.349339 294.186058 
L 862.999949 292.696012 
L 863.650559 293.326416 
L 864.30117 293.555654 
L 866.253001 293.125833 
L 867.554221 293.125833 
L 868.204831 293.526999 
L 868.855442 293.269107 
L 869.506052 292.86794 
L 870.807273 293.240452 
L 871.457883 293.125833 
L 872.108493 293.211797 
L 872.759104 293.698928 
L 873.409714 293.784892 
L 875.361545 293.211797 
L 876.012155 293.125833 
L 876.662766 293.297761 
L 877.313376 292.896595 
L 877.963986 292.953905 
L 878.614596 293.297761 
L 879.265207 293.441035 
L 879.915817 294.300677 
L 880.566427 293.756237 
L 881.867648 293.125833 
L 883.168869 293.097178 
L 884.470089 292.753321 
L 885.1207 292.352155 
L 886.42192 293.097178 
L 887.072531 293.068524 
L 887.723141 293.183142 
L 888.373751 292.409465 
L 889.024361 292.524084 
L 889.674972 293.46969 
L 890.976192 290.890764 
L 891.626803 290.718836 
L 892.277413 292.610048 
L 892.928023 292.696012 
L 893.578634 292.409465 
L 894.229244 293.097178 
L 894.879854 293.211797 
L 895.530465 293.211797 
L 896.181075 293.41238 
L 896.831685 293.985475 
L 897.482296 293.756237 
L 898.132906 293.355071 
L 898.783516 292.552738 
L 900.084737 295.332247 
L 900.735347 295.0457 
L 901.385957 291.435204 
L 902.036568 292.438119 
L 903.337788 294.931081 
L 904.639009 294.186058 
L 905.289619 293.95682 
L 905.94023 293.326416 
L 906.59084 291.635787 
L 907.24145 291.865025 
L 907.89206 291.120002 
L 908.542671 291.922334 
L 909.193281 293.985475 
L 909.843891 294.300677 
L 910.494502 294.100094 
L 911.145112 290.776145 
L 911.795722 289.429373 
L 912.446333 289.429373 
L 913.096943 289.830539 
L 913.747553 290.74749 
L 914.398164 291.148656 
L 915.048774 290.833454 
L 916.349995 292.753321 
L 917.000605 291.549823 
L 917.651215 290.031122 
L 918.301825 287.824708 
L 919.603046 288.369147 
L 920.253656 289.515337 
L 920.904267 291.34924 
L 921.554877 291.29193 
L 922.205487 290.919419 
L 922.856098 290.8048 
L 924.157318 291.492513 
L 925.458539 291.807715 
L 926.109149 292.151572 
L 926.75976 292.008298 
L 927.41037 291.607132 
L 930.012811 292.438119 
L 930.663421 292.781976 
L 931.314032 292.953905 
L 931.964642 292.896595 
L 932.615252 292.524084 
L 933.265863 291.607132 
L 933.916473 291.377894 
L 934.567083 291.406549 
L 935.217694 291.950989 
L 935.868304 291.83637 
L 936.518914 291.521168 
L 937.169525 291.750406 
L 937.820135 292.524084 
L 939.121355 292.094263 
L 939.771966 292.409465 
L 941.073186 292.065608 
L 941.723797 291.607132 
L 942.374407 291.320585 
L 943.025017 291.234621 
L 943.675628 290.862109 
L 944.326238 290.690181 
L 944.976848 289.744575 
L 945.627459 289.601301 
L 946.278069 289.629956 
L 947.579289 290.690181 
L 948.2299 290.890764 
L 948.88051 291.320585 
L 949.53112 291.263275 
L 950.181731 291.406549 
L 950.832341 291.34924 
L 952.133562 290.8048 
L 952.784172 290.432288 
L 953.434782 290.604217 
L 954.736003 291.89368 
L 956.037224 291.435204 
L 956.687834 290.833454 
L 957.338444 290.661526 
L 957.989054 290.8048 
L 958.639665 290.74749 
L 959.940885 290.346324 
L 961.242106 290.546907 
L 961.892716 290.8048 
L 962.543327 290.919419 
L 963.193937 290.690181 
L 963.844547 290.718836 
L 964.495158 290.518252 
L 965.145768 290.690181 
L 966.446989 290.776145 
L 967.097599 291.005383 
L 968.398819 290.862109 
L 969.04943 291.005383 
L 970.35065 291.120002 
L 971.001261 291.205966 
L 972.302481 290.976728 
L 973.603702 290.919419 
L 974.254312 291.091347 
L 974.904923 290.862109 
L 975.555533 290.432288 
L 976.206143 290.604217 
L 976.856754 291.83637 
L 977.507364 291.34924 
L 978.157974 290.489598 
L 978.808584 290.833454 
L 979.459195 291.549823 
L 980.109805 291.750406 
L 980.760415 291.29193 
L 981.411026 290.145741 
L 982.061636 290.403633 
L 982.712246 291.005383 
L 983.362857 291.320585 
L 984.013467 289.859194 
L 984.664077 289.400718 
L 985.314688 289.429373 
L 985.965298 289.945158 
L 986.615908 291.062692 
L 987.266518 291.234621 
L 987.917129 291.234621 
L 988.567739 290.976728 
L 990.51957 290.976728 
L 991.17018 291.377894 
L 991.820791 291.177311 
L 992.471401 290.575562 
L 993.122011 290.432288 
L 993.772622 291.377894 
L 995.073842 291.549823 
L 995.724453 290.919419 
L 996.375063 290.690181 
L 997.676283 290.8048 
L 999.628114 290.231705 
L 1000.278725 290.518252 
L 1007.435438 291.062692 
L 1008.086048 290.833454 
L 1011.3391 291.062692 
L 1012.640321 291.29193 
L 1014.592152 290.546907 
L 1015.893372 290.890764 
L 1016.543983 290.976728 
L 1017.194593 290.919419 
L 1017.845203 290.546907 
L 1019.146424 291.635787 
L 1019.797034 291.492513 
L 1020.447644 290.289015 
L 1021.748865 291.435204 
L 1022.399475 291.779061 
L 1023.700696 290.317669 
L 1024.351306 290.690181 
L 1025.001917 293.326416 
L 1025.652527 293.612963 
L 1026.303137 292.638703 
L 1026.953747 290.776145 
L 1027.604358 287.796053 
L 1028.254968 289.17148 
L 1029.556189 292.724667 
L 1030.206799 292.839286 
L 1030.857409 292.724667 
L 1031.50802 292.266191 
L 1032.15863 291.635787 
L 1032.80924 291.693096 
L 1033.459851 291.521168 
L 1034.110461 291.83637 
L 1034.761071 290.661526 
L 1035.411682 290.690181 
L 1036.712902 291.463859 
L 1037.363512 292.036953 
L 1038.014123 291.549823 
L 1038.664733 291.406549 
L 1039.315343 291.492513 
L 1039.965954 291.29193 
L 1040.616564 291.234621 
L 1041.917785 290.74749 
L 1042.568395 290.948073 
L 1043.869616 291.549823 
L 1044.520226 291.435204 
L 1047.122667 291.607132 
L 1048.423888 292.008298 
L 1049.074498 292.036953 
L 1049.725108 291.922334 
L 1050.375719 291.635787 
L 1051.026329 291.492513 
L 1051.676939 291.549823 
L 1052.32755 291.979644 
L 1053.62877 292.266191 
L 1054.929991 291.607132 
L 1055.580601 291.635787 
L 1056.231212 291.377894 
L 1056.881822 291.463859 
L 1057.532432 291.377894 
L 1058.183042 291.091347 
L 1058.833653 290.289015 
L 1059.484263 289.830539 
L 1060.134873 289.859194 
L 1060.785484 291.549823 
L 1061.436094 294.529915 
L 1062.086704 292.122917 
L 1062.737315 291.779061 
L 1063.387925 290.718836 
L 1064.038535 290.718836 
L 1064.689146 290.948073 
L 1065.990366 290.718836 
L 1066.640976 291.406549 
L 1067.291587 291.635787 
L 1067.942197 291.205966 
L 1068.592807 290.117086 
L 1069.243418 290.317669 
L 1070.544638 291.205966 
L 1071.195249 291.750406 
L 1072.496469 291.377894 
L 1073.14708 291.062692 
L 1073.79769 290.948073 
L 1074.4483 290.948073 
L 1075.098911 291.120002 
L 1075.749521 291.779061 
L 1077.050741 290.546907 
L 1077.701352 290.890764 
L 1078.351962 291.922334 
L 1079.002572 291.89368 
L 1079.653183 291.693096 
L 1080.954403 290.145741 
L 1081.605014 290.059777 
L 1082.255624 290.117086 
L 1082.906234 290.890764 
L 1083.556845 290.862109 
L 1084.858065 291.148656 
L 1085.508676 290.833454 
L 1086.809896 290.604217 
L 1088.111117 291.148656 
L 1088.761727 291.091347 
L 1089.412337 291.148656 
L 1090.062948 291.005383 
L 1091.364168 291.005383 
L 1092.014779 291.062692 
L 1093.315999 291.435204 
L 1093.96661 291.492513 
L 1094.61722 291.377894 
L 1095.26783 290.862109 
L 1095.918441 290.833454 
L 1097.219661 291.263275 
L 1097.870271 291.148656 
L 1098.520882 290.661526 
L 1099.822102 289.486682 
L 1100.472713 290.976728 
L 1101.123323 293.039869 
L 1101.773933 293.039869 
L 1102.424544 291.492513 
L 1103.075154 291.492513 
L 1103.725764 290.976728 
L 1105.026985 289.543991 
L 1105.677595 289.65861 
L 1106.328206 290.174396 
L 1106.978816 291.177311 
L 1107.629426 290.518252 
L 1108.280036 289.601301 
L 1108.930647 289.228789 
L 1109.581257 290.117086 
L 1110.882478 290.690181 
L 1111.533088 290.976728 
L 1112.183698 290.518252 
L 1113.484919 290.289015 
L 1114.135529 290.26036 
L 1115.43675 290.432288 
L 1116.73797 291.005383 
L 1118.039191 289.830539 
L 1118.689801 290.145741 
L 1119.340412 290.862109 
L 1119.991022 291.148656 
L 1120.641632 291.091347 
L 1121.292243 290.346324 
L 1121.942853 289.400718 
L 1122.593463 289.429373 
L 1123.244074 289.65861 
L 1123.894684 290.231705 
L 1124.545294 290.174396 
L 1125.195905 290.346324 
L 1125.846515 290.145741 
L 1126.497125 289.744575 
L 1127.798346 289.744575 
L 1129.099566 290.088431 
L 1129.750177 290.374979 
L 1130.400787 290.002467 
L 1131.702008 290.174396 
L 1132.352618 290.575562 
L 1133.003228 290.690181 
L 1133.653839 290.346324 
L 1134.304449 290.317669 
L 1136.25628 290.575562 
L 1138.208111 289.429373 
L 1138.858721 288.713004 
L 1139.509331 289.314754 
L 1140.159942 290.8048 
L 1140.810552 291.807715 
L 1141.461162 290.976728 
L 1142.111773 290.948073 
L 1142.762383 290.604217 
L 1143.412993 289.629956 
L 1144.063604 289.17148 
L 1145.364824 289.429373 
L 1146.015435 290.289015 
L 1146.666045 289.945158 
L 1147.316655 289.114171 
L 1147.967265 288.569731 
L 1149.268486 290.088431 
L 1149.919096 290.20305 
L 1151.870927 289.801884 
L 1152.521538 289.773229 
L 1153.172148 289.973812 
L 1153.822758 289.973812 
L 1155.123979 289.601301 
L 1156.425199 290.546907 
L 1157.07581 290.374979 
L 1157.72642 289.085516 
L 1159.027641 290.546907 
L 1159.678251 290.919419 
L 1160.328861 289.629956 
L 1160.979472 289.257444 
L 1161.630082 289.228789 
L 1162.931303 289.515337 
L 1164.232523 289.486682 
L 1164.883134 289.601301 
L 1165.533744 289.916503 
L 1166.184354 289.830539 
L 1166.834964 289.572646 
L 1167.485575 289.773229 
L 1168.136185 290.20305 
L 1168.786795 290.346324 
L 1169.437406 290.289015 
L 1170.088016 289.801884 
L 1172.039847 290.20305 
L 1172.690457 290.289015 
L 1174.642288 290.059777 
L 1175.292899 289.71592 
L 1175.943509 289.142825 
L 1176.594119 288.798968 
L 1179.19656 289.114171 
L 1180.497781 289.028206 
L 1181.148391 288.598385 
L 1181.799002 288.426457 
L 1183.100222 291.148656 
L 1183.750833 290.289015 
L 1184.401443 291.320585 
L 1185.052053 291.29193 
L 1185.702664 290.117086 
L 1186.353274 289.400718 
L 1187.003884 288.856278 
L 1187.654494 289.286099 
L 1188.305105 290.632871 
L 1188.955715 291.234621 
L 1189.606325 289.142825 
L 1190.256936 288.512421 
L 1190.907546 288.512421 
L 1192.208767 289.859194 
L 1192.859377 290.231705 
L 1193.509987 290.289015 
L 1194.811208 290.059777 
L 1195.461818 290.002467 
L 1195.461818 290.002467 
" clip-path="url(#pabefd5ccc7)" style="fill: none; stroke: #348abd; stroke-linecap: square"/>
   </g>
   <g id="line2d_36">
    <path d="M 221.498182 314.760156 
L 1195.461818 314.760156 
L 1195.461818 314.760156 
" clip-path="url(#pabefd5ccc7)" style="fill: none; stroke: #ff0000; stroke-linecap: square"/>
   </g>
   <g id="line2d_37">
    <path d="M 221.498182 193.550639 
L 1195.461818 193.550639 
L 1195.461818 193.550639 
" clip-path="url(#pabefd5ccc7)" style="fill: none; stroke: #800080; stroke-linecap: square"/>
   </g>
   <g id="patch_3">
    <path d="M 172.8 329.94 
L 172.8 84.24 
" style="fill: none; stroke: #bcbcbc; stroke-width: 0.8; stroke-linejoin: miter; stroke-linecap: square"/>
   </g>
   <g id="patch_4">
    <path d="M 1244.16 329.94 
L 1244.16 84.24 
" style="fill: none; stroke: #bcbcbc; stroke-width: 0.8; stroke-linejoin: miter; stroke-linecap: square"/>
   </g>
   <g id="patch_5">
    <path d="M 172.8 329.94 
L 1244.16 329.94 
" style="fill: none; stroke: #bcbcbc; stroke-width: 0.8; stroke-linejoin: miter; stroke-linecap: square"/>
   </g>
   <g id="patch_6">
    <path d="M 172.8 84.24 
L 1244.16 84.24 
" style="fill: none; stroke: #bcbcbc; stroke-width: 0.8; stroke-linejoin: miter; stroke-linecap: square"/>
   </g>
   <g id="text_20">
    <!-- Beschleunigungsverlauf -->
    <g transform="translate(622.10025 78.24) scale(0.144 -0.144)">
     <defs>
      <path id="DejaVuSans-76" d="M 191 3500 
L 800 3500 
L 1894 563 
L 2988 3500 
L 3597 3500 
L 2284 0 
L 1503 0 
L 191 3500 
z
" transform="scale(0.015625)"/>
      <path id="DejaVuSans-61" d="M 2194 1759 
Q 1497 1759 1228 1600 
Q 959 1441 959 1056 
Q 959 750 1161 570 
Q 1363 391 1709 391 
Q 2188 391 2477 730 
Q 2766 1069 2766 1631 
L 2766 1759 
L 2194 1759 
z
M 3341 1997 
L 3341 0 
L 2766 0 
L 2766 531 
Q 2569 213 2275 61 
Q 1981 -91 1556 -91 
Q 1019 -91 701 211 
Q 384 513 384 1019 
Q 384 1609 779 1909 
Q 1175 2209 1959 2209 
L 2766 2209 
L 2766 2266 
Q 2766 2663 2505 2880 
Q 2244 3097 1772 3097 
Q 1472 3097 1187 3025 
Q 903 2953 641 2809 
L 641 3341 
Q 956 3463 1253 3523 
Q 1550 3584 1831 3584 
Q 2591 3584 2966 3190 
Q 3341 2797 3341 1997 
z
" transform="scale(0.015625)"/>
      <path id="DejaVuSans-66" d="M 2375 4863 
L 2375 4384 
L 1825 4384 
Q 1516 4384 1395 4259 
Q 1275 4134 1275 3809 
L 1275 3500 
L 2222 3500 
L 2222 3053 
L 1275 3053 
L 1275 0 
L 697 0 
L 697 3053 
L 147 3053 
L 147 3500 
L 697 3500 
L 697 3744 
Q 697 4328 969 4595 
Q 1241 4863 1831 4863 
L 2375 4863 
z
" transform="scale(0.015625)"/>
     </defs>
     <use xlink:href="#DejaVuSans-42"/>
     <use xlink:href="#DejaVuSans-65" x="68.603516"/>
     <use xlink:href="#DejaVuSans-73" x="130.126953"/>
     <use xlink:href="#DejaVuSans-63" x="182.226562"/>
     <use xlink:href="#DejaVuSans-68" x="237.207031"/>
     <use xlink:href="#DejaVuSans-6c" x="300.585938"/>
     <use xlink:href="#DejaVuSans-65" x="328.369141"/>
     <use xlink:href="#DejaVuSans-75" x="389.892578"/>
     <use xlink:href="#DejaVuSans-6e" x="453.271484"/>
     <use xlink:href="#DejaVuSans-69" x="516.650391"/>
     <use xlink:href="#DejaVuSans-67" x="544.433594"/>
     <use xlink:href="#DejaVuSans-75" x="607.910156"/>
     <use xlink:href="#DejaVuSans-6e" x="671.289062"/>
     <use xlink:href="#DejaVuSans-67" x="734.667969"/>
     <use xlink:href="#DejaVuSans-73" x="798.144531"/>
     <use xlink:href="#DejaVuSans-76" x="850.244141"/>
     <use xlink:href="#DejaVuSans-65" x="909.423828"/>
     <use xlink:href="#DejaVuSans-72" x="970.947266"/>
     <use xlink:href="#DejaVuSans-6c" x="1012.060547"/>
     <use xlink:href="#DejaVuSans-61" x="1039.84375"/>
     <use xlink:href="#DejaVuSans-75" x="1101.123047"/>
     <use xlink:href="#DejaVuSans-66" x="1164.501953"/>
    </g>
   </g>
   <g id="legend_1">
    <g id="patch_7">
     <path d="M 1085.188125 136.274375 
L 1237.16 136.274375 
Q 1239.16 136.274375 1239.16 134.274375 
L 1239.16 91.24 
Q 1239.16 89.24 1237.16 89.24 
L 1085.188125 89.24 
Q 1083.188125 89.24 1083.188125 91.24 
L 1083.188125 134.274375 
Q 1083.188125 136.274375 1085.188125 136.274375 
z
" style="fill: #eeeeee; opacity: 0.8; stroke: #cccccc; stroke-width: 0.5; stroke-linejoin: miter"/>
    </g>
    <g id="line2d_38">
     <path d="M 1087.188125 97.338437 
L 1097.188125 97.338437 
L 1107.188125 97.338437 
" style="fill: none; stroke: #348abd; stroke-linecap: square"/>
    </g>
    <g id="text_21">
     <!-- Beschleunigungsverlauf -->
     <g transform="translate(1115.188125 100.838437) scale(0.1 -0.1)">
      <use xlink:href="#DejaVuSans-42"/>
      <use xlink:href="#DejaVuSans-65" x="68.603516"/>
      <use xlink:href="#DejaVuSans-73" x="130.126953"/>
      <use xlink:href="#DejaVuSans-63" x="182.226562"/>
      <use xlink:href="#DejaVuSans-68" x="237.207031"/>
      <use xlink:href="#DejaVuSans-6c" x="300.585938"/>
      <use xlink:href="#DejaVuSans-65" x="328.369141"/>
      <use xlink:href="#DejaVuSans-75" x="389.892578"/>
      <use xlink:href="#DejaVuSans-6e" x="453.271484"/>
      <use xlink:href="#DejaVuSans-69" x="516.650391"/>
      <use xlink:href="#DejaVuSans-67" x="544.433594"/>
      <use xlink:href="#DejaVuSans-75" x="607.910156"/>
      <use xlink:href="#DejaVuSans-6e" x="671.289062"/>
      <use xlink:href="#DejaVuSans-67" x="734.667969"/>
      <use xlink:href="#DejaVuSans-73" x="798.144531"/>
      <use xlink:href="#DejaVuSans-76" x="850.244141"/>
      <use xlink:href="#DejaVuSans-65" x="909.423828"/>
      <use xlink:href="#DejaVuSans-72" x="970.947266"/>
      <use xlink:href="#DejaVuSans-6c" x="1012.060547"/>
      <use xlink:href="#DejaVuSans-61" x="1039.84375"/>
      <use xlink:href="#DejaVuSans-75" x="1101.123047"/>
      <use xlink:href="#DejaVuSans-66" x="1164.501953"/>
     </g>
    </g>
    <g id="line2d_39">
     <path d="M 1087.188125 112.016562 
L 1097.188125 112.016562 
L 1107.188125 112.016562 
" style="fill: none; stroke: #ff0000; stroke-linecap: square"/>
    </g>
    <g id="text_22">
     <!-- Unterer Threshold -->
     <g transform="translate(1115.188125 115.516562) scale(0.1 -0.1)">
      <defs>
       <path id="DejaVuSans-55" d="M 556 4666 
L 1191 4666 
L 1191 1831 
Q 1191 1081 1462 751 
Q 1734 422 2344 422 
Q 2950 422 3222 751 
Q 3494 1081 3494 1831 
L 3494 4666 
L 4128 4666 
L 4128 1753 
Q 4128 841 3676 375 
Q 3225 -91 2344 -91 
Q 1459 -91 1007 375 
Q 556 841 556 1753 
L 556 4666 
z
" transform="scale(0.015625)"/>
       <path id="DejaVuSans-54" d="M -19 4666 
L 3928 4666 
L 3928 4134 
L 2272 4134 
L 2272 0 
L 1638 0 
L 1638 4134 
L -19 4134 
L -19 4666 
z
" transform="scale(0.015625)"/>
      </defs>
      <use xlink:href="#DejaVuSans-55"/>
      <use xlink:href="#DejaVuSans-6e" x="73.193359"/>
      <use xlink:href="#DejaVuSans-74" x="136.572266"/>
      <use xlink:href="#DejaVuSans-65" x="175.78125"/>
      <use xlink:href="#DejaVuSans-72" x="237.304688"/>
      <use xlink:href="#DejaVuSans-65" x="276.167969"/>
      <use xlink:href="#DejaVuSans-72" x="337.691406"/>
      <use xlink:href="#DejaVuSans-20" x="378.804688"/>
      <use xlink:href="#DejaVuSans-54" x="410.591797"/>
      <use xlink:href="#DejaVuSans-68" x="471.675781"/>
      <use xlink:href="#DejaVuSans-72" x="535.054688"/>
      <use xlink:href="#DejaVuSans-65" x="573.917969"/>
      <use xlink:href="#DejaVuSans-73" x="635.441406"/>
      <use xlink:href="#DejaVuSans-68" x="687.541016"/>
      <use xlink:href="#DejaVuSans-6f" x="750.919922"/>
      <use xlink:href="#DejaVuSans-6c" x="812.101562"/>
      <use xlink:href="#DejaVuSans-64" x="839.884766"/>
     </g>
    </g>
    <g id="line2d_40">
     <path d="M 1087.188125 126.694687 
L 1097.188125 126.694687 
L 1107.188125 126.694687 
" style="fill: none; stroke: #800080; stroke-linecap: square"/>
    </g>
    <g id="text_23">
     <!-- Oberer Threshhold -->
     <g transform="translate(1115.188125 130.194687) scale(0.1 -0.1)">
      <defs>
       <path id="DejaVuSans-4f" d="M 2522 4238 
Q 1834 4238 1429 3725 
Q 1025 3213 1025 2328 
Q 1025 1447 1429 934 
Q 1834 422 2522 422 
Q 3209 422 3611 934 
Q 4013 1447 4013 2328 
Q 4013 3213 3611 3725 
Q 3209 4238 2522 4238 
z
M 2522 4750 
Q 3503 4750 4090 4092 
Q 4678 3434 4678 2328 
Q 4678 1225 4090 567 
Q 3503 -91 2522 -91 
Q 1538 -91 948 565 
Q 359 1222 359 2328 
Q 359 3434 948 4092 
Q 1538 4750 2522 4750 
z
" transform="scale(0.015625)"/>
      </defs>
      <use xlink:href="#DejaVuSans-4f"/>
      <use xlink:href="#DejaVuSans-62" x="78.710938"/>
      <use xlink:href="#DejaVuSans-65" x="142.1875"/>
      <use xlink:href="#DejaVuSans-72" x="203.710938"/>
      <use xlink:href="#DejaVuSans-65" x="242.574219"/>
      <use xlink:href="#DejaVuSans-72" x="304.097656"/>
      <use xlink:href="#DejaVuSans-20" x="345.210938"/>
      <use xlink:href="#DejaVuSans-54" x="376.998047"/>
      <use xlink:href="#DejaVuSans-68" x="438.082031"/>
      <use xlink:href="#DejaVuSans-72" x="501.460938"/>
      <use xlink:href="#DejaVuSans-65" x="540.324219"/>
      <use xlink:href="#DejaVuSans-73" x="601.847656"/>
      <use xlink:href="#DejaVuSans-68" x="653.947266"/>
      <use xlink:href="#DejaVuSans-68" x="717.326172"/>
      <use xlink:href="#DejaVuSans-6f" x="780.705078"/>
      <use xlink:href="#DejaVuSans-6c" x="841.886719"/>
      <use xlink:href="#DejaVuSans-64" x="869.669922"/>
     </g>
    </g>
   </g>
  </g>
  <g id="axes_2">
   <g id="patch_8">
    <path d="M 172.8 624.78 
L 1244.16 624.78 
L 1244.16 379.08 
L 172.8 379.08 
z
" style="fill: #eeeeee"/>
   </g>
   <g id="matplotlib.axis_3">
    <g id="xtick_9">
     <g id="line2d_41">
      <path d="M 221.498182 624.78 
L 221.498182 379.08 
" clip-path="url(#pd972764722)" style="fill: none; stroke-dasharray: 1.85,0.8; stroke-dashoffset: 0; stroke: #b2b2b2; stroke-width: 0.5"/>
     </g>
     <g id="line2d_42">
      <g>
       <use xlink:href="#m0d3da844f2" x="221.498182" y="624.78" style="stroke: #000000; stroke-width: 0.8"/>
      </g>
     </g>
     <g id="text_24">
      <!-- 0 -->
      <g transform="translate(218.316932 635.878438) scale(0.1 -0.1)">
       <use xlink:href="#DejaVuSans-30"/>
      </g>
     </g>
    </g>
    <g id="xtick_10">
     <g id="line2d_43">
      <path d="M 351.620244 624.78 
L 351.620244 379.08 
" clip-path="url(#pd972764722)" style="fill: none; stroke-dasharray: 1.85,0.8; stroke-dashoffset: 0; stroke: #b2b2b2; stroke-width: 0.5"/>
     </g>
     <g id="line2d_44">
      <g>
       <use xlink:href="#m0d3da844f2" x="351.620244" y="624.78" style="stroke: #000000; stroke-width: 0.8"/>
      </g>
     </g>
     <g id="text_25">
      <!-- 200 -->
      <g transform="translate(342.076494 635.878438) scale(0.1 -0.1)">
       <use xlink:href="#DejaVuSans-32"/>
       <use xlink:href="#DejaVuSans-30" x="63.623047"/>
       <use xlink:href="#DejaVuSans-30" x="127.246094"/>
      </g>
     </g>
    </g>
    <g id="xtick_11">
     <g id="line2d_45">
      <path d="M 481.742306 624.78 
L 481.742306 379.08 
" clip-path="url(#pd972764722)" style="fill: none; stroke-dasharray: 1.85,0.8; stroke-dashoffset: 0; stroke: #b2b2b2; stroke-width: 0.5"/>
     </g>
     <g id="line2d_46">
      <g>
       <use xlink:href="#m0d3da844f2" x="481.742306" y="624.78" style="stroke: #000000; stroke-width: 0.8"/>
      </g>
     </g>
     <g id="text_26">
      <!-- 400 -->
      <g transform="translate(472.198556 635.878438) scale(0.1 -0.1)">
       <use xlink:href="#DejaVuSans-34"/>
       <use xlink:href="#DejaVuSans-30" x="63.623047"/>
       <use xlink:href="#DejaVuSans-30" x="127.246094"/>
      </g>
     </g>
    </g>
    <g id="xtick_12">
     <g id="line2d_47">
      <path d="M 611.864369 624.78 
L 611.864369 379.08 
" clip-path="url(#pd972764722)" style="fill: none; stroke-dasharray: 1.85,0.8; stroke-dashoffset: 0; stroke: #b2b2b2; stroke-width: 0.5"/>
     </g>
     <g id="line2d_48">
      <g>
       <use xlink:href="#m0d3da844f2" x="611.864369" y="624.78" style="stroke: #000000; stroke-width: 0.8"/>
      </g>
     </g>
     <g id="text_27">
      <!-- 600 -->
      <g transform="translate(602.320619 635.878438) scale(0.1 -0.1)">
       <use xlink:href="#DejaVuSans-36"/>
       <use xlink:href="#DejaVuSans-30" x="63.623047"/>
       <use xlink:href="#DejaVuSans-30" x="127.246094"/>
      </g>
     </g>
    </g>
    <g id="xtick_13">
     <g id="line2d_49">
      <path d="M 741.986431 624.78 
L 741.986431 379.08 
" clip-path="url(#pd972764722)" style="fill: none; stroke-dasharray: 1.85,0.8; stroke-dashoffset: 0; stroke: #b2b2b2; stroke-width: 0.5"/>
     </g>
     <g id="line2d_50">
      <g>
       <use xlink:href="#m0d3da844f2" x="741.986431" y="624.78" style="stroke: #000000; stroke-width: 0.8"/>
      </g>
     </g>
     <g id="text_28">
      <!-- 800 -->
      <g transform="translate(732.442681 635.878438) scale(0.1 -0.1)">
       <use xlink:href="#DejaVuSans-38"/>
       <use xlink:href="#DejaVuSans-30" x="63.623047"/>
       <use xlink:href="#DejaVuSans-30" x="127.246094"/>
      </g>
     </g>
    </g>
    <g id="xtick_14">
     <g id="line2d_51">
      <path d="M 872.108493 624.78 
L 872.108493 379.08 
" clip-path="url(#pd972764722)" style="fill: none; stroke-dasharray: 1.85,0.8; stroke-dashoffset: 0; stroke: #b2b2b2; stroke-width: 0.5"/>
     </g>
     <g id="line2d_52">
      <g>
       <use xlink:href="#m0d3da844f2" x="872.108493" y="624.78" style="stroke: #000000; stroke-width: 0.8"/>
      </g>
     </g>
     <g id="text_29">
      <!-- 1000 -->
      <g transform="translate(859.383493 635.878438) scale(0.1 -0.1)">
       <use xlink:href="#DejaVuSans-31"/>
       <use xlink:href="#DejaVuSans-30" x="63.623047"/>
       <use xlink:href="#DejaVuSans-30" x="127.246094"/>
       <use xlink:href="#DejaVuSans-30" x="190.869141"/>
      </g>
     </g>
    </g>
    <g id="xtick_15">
     <g id="line2d_53">
      <path d="M 1002.230556 624.78 
L 1002.230556 379.08 
" clip-path="url(#pd972764722)" style="fill: none; stroke-dasharray: 1.85,0.8; stroke-dashoffset: 0; stroke: #b2b2b2; stroke-width: 0.5"/>
     </g>
     <g id="line2d_54">
      <g>
       <use xlink:href="#m0d3da844f2" x="1002.230556" y="624.78" style="stroke: #000000; stroke-width: 0.8"/>
      </g>
     </g>
     <g id="text_30">
      <!-- 1200 -->
      <g transform="translate(989.505556 635.878438) scale(0.1 -0.1)">
       <use xlink:href="#DejaVuSans-31"/>
       <use xlink:href="#DejaVuSans-32" x="63.623047"/>
       <use xlink:href="#DejaVuSans-30" x="127.246094"/>
       <use xlink:href="#DejaVuSans-30" x="190.869141"/>
      </g>
     </g>
    </g>
    <g id="xtick_16">
     <g id="line2d_55">
      <path d="M 1132.352618 624.78 
L 1132.352618 379.08 
" clip-path="url(#pd972764722)" style="fill: none; stroke-dasharray: 1.85,0.8; stroke-dashoffset: 0; stroke: #b2b2b2; stroke-width: 0.5"/>
     </g>
     <g id="line2d_56">
      <g>
       <use xlink:href="#m0d3da844f2" x="1132.352618" y="624.78" style="stroke: #000000; stroke-width: 0.8"/>
      </g>
     </g>
     <g id="text_31">
      <!-- 1400 -->
      <g transform="translate(1119.627618 635.878438) scale(0.1 -0.1)">
       <use xlink:href="#DejaVuSans-31"/>
       <use xlink:href="#DejaVuSans-34" x="63.623047"/>
       <use xlink:href="#DejaVuSans-30" x="127.246094"/>
       <use xlink:href="#DejaVuSans-30" x="190.869141"/>
      </g>
     </g>
    </g>
    <g id="text_32">
     <!-- Detektierte Threshholds -->
     <g transform="translate(636.027187 651.07625) scale(0.12 -0.12)">
      <defs>
       <path id="DejaVuSans-44" d="M 1259 4147 
L 1259 519 
L 2022 519 
Q 2988 519 3436 956 
Q 3884 1394 3884 2338 
Q 3884 3275 3436 3711 
Q 2988 4147 2022 4147 
L 1259 4147 
z
M 628 4666 
L 1925 4666 
Q 3281 4666 3915 4102 
Q 4550 3538 4550 2338 
Q 4550 1131 3912 565 
Q 3275 0 1925 0 
L 628 0 
L 628 4666 
z
" transform="scale(0.015625)"/>
       <path id="DejaVuSans-6b" d="M 581 4863 
L 1159 4863 
L 1159 1991 
L 2875 3500 
L 3609 3500 
L 1753 1863 
L 3688 0 
L 2938 0 
L 1159 1709 
L 1159 0 
L 581 0 
L 581 4863 
z
" transform="scale(0.015625)"/>
      </defs>
      <use xlink:href="#DejaVuSans-44"/>
      <use xlink:href="#DejaVuSans-65" x="77.001953"/>
      <use xlink:href="#DejaVuSans-74" x="138.525391"/>
      <use xlink:href="#DejaVuSans-65" x="177.734375"/>
      <use xlink:href="#DejaVuSans-6b" x="239.257812"/>
      <use xlink:href="#DejaVuSans-74" x="297.167969"/>
      <use xlink:href="#DejaVuSans-69" x="336.376953"/>
      <use xlink:href="#DejaVuSans-65" x="364.160156"/>
      <use xlink:href="#DejaVuSans-72" x="425.683594"/>
      <use xlink:href="#DejaVuSans-74" x="466.796875"/>
      <use xlink:href="#DejaVuSans-65" x="506.005859"/>
      <use xlink:href="#DejaVuSans-20" x="567.529297"/>
      <use xlink:href="#DejaVuSans-54" x="599.316406"/>
      <use xlink:href="#DejaVuSans-68" x="660.400391"/>
      <use xlink:href="#DejaVuSans-72" x="723.779297"/>
      <use xlink:href="#DejaVuSans-65" x="762.642578"/>
      <use xlink:href="#DejaVuSans-73" x="824.166016"/>
      <use xlink:href="#DejaVuSans-68" x="876.265625"/>
      <use xlink:href="#DejaVuSans-68" x="939.644531"/>
      <use xlink:href="#DejaVuSans-6f" x="1003.023438"/>
      <use xlink:href="#DejaVuSans-6c" x="1064.205078"/>
      <use xlink:href="#DejaVuSans-64" x="1091.988281"/>
      <use xlink:href="#DejaVuSans-73" x="1155.464844"/>
     </g>
    </g>
   </g>
   <g id="matplotlib.axis_4">
    <g id="ytick_10">
     <g id="line2d_57">
      <path d="M 172.8 613.611818 
L 1244.16 613.611818 
" clip-path="url(#pd972764722)" style="fill: none; stroke-dasharray: 1.85,0.8; stroke-dashoffset: 0; stroke: #b2b2b2; stroke-width: 0.5"/>
     </g>
     <g id="line2d_58">
      <g>
       <use xlink:href="#mc843de8913" x="172.8" y="613.611818" style="stroke: #000000; stroke-width: 0.8"/>
      </g>
     </g>
     <g id="text_33">
      <!-- 0.0 -->
      <g transform="translate(153.396875 617.411037) scale(0.1 -0.1)">
       <defs>
        <path id="DejaVuSans-2e" d="M 684 794 
L 1344 794 
L 1344 0 
L 684 0 
L 684 794 
z
" transform="scale(0.015625)"/>
       </defs>
       <use xlink:href="#DejaVuSans-30"/>
       <use xlink:href="#DejaVuSans-2e" x="63.623047"/>
       <use xlink:href="#DejaVuSans-30" x="95.410156"/>
      </g>
     </g>
    </g>
    <g id="ytick_11">
     <g id="line2d_59">
      <path d="M 172.8 568.939091 
L 1244.16 568.939091 
" clip-path="url(#pd972764722)" style="fill: none; stroke-dasharray: 1.85,0.8; stroke-dashoffset: 0; stroke: #b2b2b2; stroke-width: 0.5"/>
     </g>
     <g id="line2d_60">
      <g>
       <use xlink:href="#mc843de8913" x="172.8" y="568.939091" style="stroke: #000000; stroke-width: 0.8"/>
      </g>
     </g>
     <g id="text_34">
      <!-- 0.2 -->
      <g transform="translate(153.396875 572.73831) scale(0.1 -0.1)">
       <use xlink:href="#DejaVuSans-30"/>
       <use xlink:href="#DejaVuSans-2e" x="63.623047"/>
       <use xlink:href="#DejaVuSans-32" x="95.410156"/>
      </g>
     </g>
    </g>
    <g id="ytick_12">
     <g id="line2d_61">
      <path d="M 172.8 524.266364 
L 1244.16 524.266364 
" clip-path="url(#pd972764722)" style="fill: none; stroke-dasharray: 1.85,0.8; stroke-dashoffset: 0; stroke: #b2b2b2; stroke-width: 0.5"/>
     </g>
     <g id="line2d_62">
      <g>
       <use xlink:href="#mc843de8913" x="172.8" y="524.266364" style="stroke: #000000; stroke-width: 0.8"/>
      </g>
     </g>
     <g id="text_35">
      <!-- 0.4 -->
      <g transform="translate(153.396875 528.065582) scale(0.1 -0.1)">
       <use xlink:href="#DejaVuSans-30"/>
       <use xlink:href="#DejaVuSans-2e" x="63.623047"/>
       <use xlink:href="#DejaVuSans-34" x="95.410156"/>
      </g>
     </g>
    </g>
    <g id="ytick_13">
     <g id="line2d_63">
      <path d="M 172.8 479.593636 
L 1244.16 479.593636 
" clip-path="url(#pd972764722)" style="fill: none; stroke-dasharray: 1.85,0.8; stroke-dashoffset: 0; stroke: #b2b2b2; stroke-width: 0.5"/>
     </g>
     <g id="line2d_64">
      <g>
       <use xlink:href="#mc843de8913" x="172.8" y="479.593636" style="stroke: #000000; stroke-width: 0.8"/>
      </g>
     </g>
     <g id="text_36">
      <!-- 0.6 -->
      <g transform="translate(153.396875 483.392855) scale(0.1 -0.1)">
       <use xlink:href="#DejaVuSans-30"/>
       <use xlink:href="#DejaVuSans-2e" x="63.623047"/>
       <use xlink:href="#DejaVuSans-36" x="95.410156"/>
      </g>
     </g>
    </g>
    <g id="ytick_14">
     <g id="line2d_65">
      <path d="M 172.8 434.920909 
L 1244.16 434.920909 
" clip-path="url(#pd972764722)" style="fill: none; stroke-dasharray: 1.85,0.8; stroke-dashoffset: 0; stroke: #b2b2b2; stroke-width: 0.5"/>
     </g>
     <g id="line2d_66">
      <g>
       <use xlink:href="#mc843de8913" x="172.8" y="434.920909" style="stroke: #000000; stroke-width: 0.8"/>
      </g>
     </g>
     <g id="text_37">
      <!-- 0.8 -->
      <g transform="translate(153.396875 438.720128) scale(0.1 -0.1)">
       <use xlink:href="#DejaVuSans-30"/>
       <use xlink:href="#DejaVuSans-2e" x="63.623047"/>
       <use xlink:href="#DejaVuSans-38" x="95.410156"/>
      </g>
     </g>
    </g>
    <g id="ytick_15">
     <g id="line2d_67">
      <path d="M 172.8 390.248182 
L 1244.16 390.248182 
" clip-path="url(#pd972764722)" style="fill: none; stroke-dasharray: 1.85,0.8; stroke-dashoffset: 0; stroke: #b2b2b2; stroke-width: 0.5"/>
     </g>
     <g id="line2d_68">
      <g>
       <use xlink:href="#mc843de8913" x="172.8" y="390.248182" style="stroke: #000000; stroke-width: 0.8"/>
      </g>
     </g>
     <g id="text_38">
      <!-- 1.0 -->
      <g transform="translate(153.396875 394.047401) scale(0.1 -0.1)">
       <use xlink:href="#DejaVuSans-31"/>
       <use xlink:href="#DejaVuSans-2e" x="63.623047"/>
       <use xlink:href="#DejaVuSans-30" x="95.410156"/>
      </g>
     </g>
    </g>
    <g id="text_39">
     <!-- Threshold status -->
     <g transform="translate(146.90125 551.837813) rotate(-90) scale(0.12 -0.12)">
      <use xlink:href="#DejaVuSans-54"/>
      <use xlink:href="#DejaVuSans-68" x="61.083984"/>
      <use xlink:href="#DejaVuSans-72" x="124.462891"/>
      <use xlink:href="#DejaVuSans-65" x="163.326172"/>
      <use xlink:href="#DejaVuSans-73" x="224.849609"/>
      <use xlink:href="#DejaVuSans-68" x="276.949219"/>
      <use xlink:href="#DejaVuSans-6f" x="340.328125"/>
      <use xlink:href="#DejaVuSans-6c" x="401.509766"/>
      <use xlink:href="#DejaVuSans-64" x="429.292969"/>
      <use xlink:href="#DejaVuSans-20" x="492.769531"/>
      <use xlink:href="#DejaVuSans-73" x="524.556641"/>
      <use xlink:href="#DejaVuSans-74" x="576.65625"/>
      <use xlink:href="#DejaVuSans-61" x="615.865234"/>
      <use xlink:href="#DejaVuSans-74" x="677.144531"/>
      <use xlink:href="#DejaVuSans-75" x="716.353516"/>
      <use xlink:href="#DejaVuSans-73" x="779.732422"/>
     </g>
    </g>
   </g>
   <g id="line2d_69">
    <path d="M 221.498182 613.611818 
L 604.057045 613.611818 
L 604.707655 479.593636 
L 607.310097 479.593636 
L 607.960707 613.611818 
L 608.611317 479.593636 
L 610.563148 479.593636 
L 611.213758 613.611818 
L 1195.461818 613.611818 
L 1195.461818 613.611818 
" clip-path="url(#pd972764722)" style="fill: none; stroke: #800080; stroke-linecap: square"/>
   </g>
   <g id="line2d_70">
    <path d="M 221.498182 613.611818 
L 589.743618 613.611818 
L 590.394228 479.593636 
L 594.29789 479.593636 
L 594.948501 613.611818 
L 1195.461818 613.611818 
L 1195.461818 613.611818 
" clip-path="url(#pd972764722)" style="fill: none; stroke: #ff0000; stroke-linecap: square"/>
   </g>
   <g id="line2d_71">
    <path d="M 221.498182 613.611818 
L 589.743618 613.611818 
L 590.394228 390.248182 
L 638.539392 390.248182 
L 639.190002 613.611818 
L 1195.461818 613.611818 
L 1195.461818 613.611818 
" clip-path="url(#pd972764722)" style="fill: none; stroke: #348abd; stroke-width: 2; stroke-linecap: square"/>
   </g>
   <g id="patch_9">
    <path d="M 172.8 624.78 
L 172.8 379.08 
" style="fill: none; stroke: #bcbcbc; stroke-width: 0.8; stroke-linejoin: miter; stroke-linecap: square"/>
   </g>
   <g id="patch_10">
    <path d="M 1244.16 624.78 
L 1244.16 379.08 
" style="fill: none; stroke: #bcbcbc; stroke-width: 0.8; stroke-linejoin: miter; stroke-linecap: square"/>
   </g>
   <g id="patch_11">
    <path d="M 172.8 624.78 
L 1244.16 624.78 
" style="fill: none; stroke: #bcbcbc; stroke-width: 0.8; stroke-linejoin: miter; stroke-linecap: square"/>
   </g>
   <g id="patch_12">
    <path d="M 172.8 379.08 
L 1244.16 379.08 
" style="fill: none; stroke: #bcbcbc; stroke-width: 0.8; stroke-linejoin: miter; stroke-linecap: square"/>
   </g>
   <g id="legend_2">
    <g id="patch_13">
     <path d="M 1079.783437 431.114375 
L 1237.16 431.114375 
Q 1239.16 431.114375 1239.16 429.114375 
L 1239.16 386.08 
Q 1239.16 384.08 1237.16 384.08 
L 1079.783437 384.08 
Q 1077.783437 384.08 1077.783437 386.08 
L 1077.783437 429.114375 
Q 1077.783437 431.114375 1079.783437 431.114375 
z
" style="fill: #eeeeee; opacity: 0.8; stroke: #cccccc; stroke-width: 0.5; stroke-linejoin: miter"/>
    </g>
    <g id="line2d_72">
     <path d="M 1081.783437 392.178437 
L 1091.783437 392.178437 
L 1101.783437 392.178437 
" style="fill: none; stroke: #800080; stroke-linecap: square"/>
    </g>
    <g id="text_40">
     <!-- Oberer Threshold Status -->
     <g transform="translate(1109.783437 395.678437) scale(0.1 -0.1)">
      <defs>
       <path id="DejaVuSans-53" d="M 3425 4513 
L 3425 3897 
Q 3066 4069 2747 4153 
Q 2428 4238 2131 4238 
Q 1616 4238 1336 4038 
Q 1056 3838 1056 3469 
Q 1056 3159 1242 3001 
Q 1428 2844 1947 2747 
L 2328 2669 
Q 3034 2534 3370 2195 
Q 3706 1856 3706 1288 
Q 3706 609 3251 259 
Q 2797 -91 1919 -91 
Q 1588 -91 1214 -16 
Q 841 59 441 206 
L 441 856 
Q 825 641 1194 531 
Q 1563 422 1919 422 
Q 2459 422 2753 634 
Q 3047 847 3047 1241 
Q 3047 1584 2836 1778 
Q 2625 1972 2144 2069 
L 1759 2144 
Q 1053 2284 737 2584 
Q 422 2884 422 3419 
Q 422 4038 858 4394 
Q 1294 4750 2059 4750 
Q 2388 4750 2728 4690 
Q 3069 4631 3425 4513 
z
" transform="scale(0.015625)"/>
      </defs>
      <use xlink:href="#DejaVuSans-4f"/>
      <use xlink:href="#DejaVuSans-62" x="78.710938"/>
      <use xlink:href="#DejaVuSans-65" x="142.1875"/>
      <use xlink:href="#DejaVuSans-72" x="203.710938"/>
      <use xlink:href="#DejaVuSans-65" x="242.574219"/>
      <use xlink:href="#DejaVuSans-72" x="304.097656"/>
      <use xlink:href="#DejaVuSans-20" x="345.210938"/>
      <use xlink:href="#DejaVuSans-54" x="376.998047"/>
      <use xlink:href="#DejaVuSans-68" x="438.082031"/>
      <use xlink:href="#DejaVuSans-72" x="501.460938"/>
      <use xlink:href="#DejaVuSans-65" x="540.324219"/>
      <use xlink:href="#DejaVuSans-73" x="601.847656"/>
      <use xlink:href="#DejaVuSans-68" x="653.947266"/>
      <use xlink:href="#DejaVuSans-6f" x="717.326172"/>
      <use xlink:href="#DejaVuSans-6c" x="778.507812"/>
      <use xlink:href="#DejaVuSans-64" x="806.291016"/>
      <use xlink:href="#DejaVuSans-20" x="869.767578"/>
      <use xlink:href="#DejaVuSans-53" x="901.554688"/>
      <use xlink:href="#DejaVuSans-74" x="965.03125"/>
      <use xlink:href="#DejaVuSans-61" x="1004.240234"/>
      <use xlink:href="#DejaVuSans-74" x="1065.519531"/>
      <use xlink:href="#DejaVuSans-75" x="1104.728516"/>
      <use xlink:href="#DejaVuSans-73" x="1168.107422"/>
     </g>
    </g>
    <g id="line2d_73">
     <path d="M 1081.783437 406.856562 
L 1091.783437 406.856562 
L 1101.783437 406.856562 
" style="fill: none; stroke: #ff0000; stroke-linecap: square"/>
    </g>
    <g id="text_41">
     <!-- Unterer Threshold Status -->
     <g transform="translate(1109.783437 410.356562) scale(0.1 -0.1)">
      <use xlink:href="#DejaVuSans-55"/>
      <use xlink:href="#DejaVuSans-6e" x="73.193359"/>
      <use xlink:href="#DejaVuSans-74" x="136.572266"/>
      <use xlink:href="#DejaVuSans-65" x="175.78125"/>
      <use xlink:href="#DejaVuSans-72" x="237.304688"/>
      <use xlink:href="#DejaVuSans-65" x="276.167969"/>
      <use xlink:href="#DejaVuSans-72" x="337.691406"/>
      <use xlink:href="#DejaVuSans-20" x="378.804688"/>
      <use xlink:href="#DejaVuSans-54" x="410.591797"/>
      <use xlink:href="#DejaVuSans-68" x="471.675781"/>
      <use xlink:href="#DejaVuSans-72" x="535.054688"/>
      <use xlink:href="#DejaVuSans-65" x="573.917969"/>
      <use xlink:href="#DejaVuSans-73" x="635.441406"/>
      <use xlink:href="#DejaVuSans-68" x="687.541016"/>
      <use xlink:href="#DejaVuSans-6f" x="750.919922"/>
      <use xlink:href="#DejaVuSans-6c" x="812.101562"/>
      <use xlink:href="#DejaVuSans-64" x="839.884766"/>
      <use xlink:href="#DejaVuSans-20" x="903.361328"/>
      <use xlink:href="#DejaVuSans-53" x="935.148438"/>
      <use xlink:href="#DejaVuSans-74" x="998.625"/>
      <use xlink:href="#DejaVuSans-61" x="1037.833984"/>
      <use xlink:href="#DejaVuSans-74" x="1099.113281"/>
      <use xlink:href="#DejaVuSans-75" x="1138.322266"/>
      <use xlink:href="#DejaVuSans-73" x="1201.701172"/>
     </g>
    </g>
    <g id="line2d_74">
     <path d="M 1081.783437 421.534687 
L 1091.783437 421.534687 
L 1101.783437 421.534687 
" style="fill: none; stroke: #348abd; stroke-width: 2; stroke-linecap: square"/>
    </g>
    <g id="text_42">
     <!-- Erkannter Fall -->
     <g transform="translate(1109.783437 425.034687) scale(0.1 -0.1)">
      <defs>
       <path id="DejaVuSans-45" d="M 628 4666 
L 3578 4666 
L 3578 4134 
L 1259 4134 
L 1259 2753 
L 3481 2753 
L 3481 2222 
L 1259 2222 
L 1259 531 
L 3634 531 
L 3634 0 
L 628 0 
L 628 4666 
z
" transform="scale(0.015625)"/>
       <path id="DejaVuSans-46" d="M 628 4666 
L 3309 4666 
L 3309 4134 
L 1259 4134 
L 1259 2759 
L 3109 2759 
L 3109 2228 
L 1259 2228 
L 1259 0 
L 628 0 
L 628 4666 
z
" transform="scale(0.015625)"/>
      </defs>
      <use xlink:href="#DejaVuSans-45"/>
      <use xlink:href="#DejaVuSans-72" x="63.183594"/>
      <use xlink:href="#DejaVuSans-6b" x="104.296875"/>
      <use xlink:href="#DejaVuSans-61" x="160.457031"/>
      <use xlink:href="#DejaVuSans-6e" x="221.736328"/>
      <use xlink:href="#DejaVuSans-6e" x="285.115234"/>
      <use xlink:href="#DejaVuSans-74" x="348.494141"/>
      <use xlink:href="#DejaVuSans-65" x="387.703125"/>
      <use xlink:href="#DejaVuSans-72" x="449.226562"/>
      <use xlink:href="#DejaVuSans-20" x="490.339844"/>
      <use xlink:href="#DejaVuSans-46" x="522.126953"/>
      <use xlink:href="#DejaVuSans-61" x="570.521484"/>
      <use xlink:href="#DejaVuSans-6c" x="631.800781"/>
      <use xlink:href="#DejaVuSans-6c" x="659.583984"/>
     </g>
    </g>
   </g>
  </g>
 </g>
 <defs>
  <clipPath id="pabefd5ccc7">
   <rect x="172.8" y="84.24" width="1071.36" height="245.7"/>
  </clipPath>
  <clipPath id="pd972764722">
   <rect x="172.8" y="379.08" width="1071.36" height="245.7"/>
  </clipPath>
 </defs>
</svg>
